<svg width="120" height="120" fill="none" xmlns="http://www.w3.org/2000/svg"><rect opacity=".1" width="120" height="120" rx="20" fill="#EA0B1E"/><rect x="25" y="25" width="70" height="70" rx="10" fill="#E11D2E"/><path d="M76.028 43H66.17a1.972 1.972 0 00-1.972 1.972v9.859c0 1.089.883 1.972 1.972 1.972h9.86A1.972 1.972 0 0078 54.83v-9.86A1.972 1.972 0 0076.028 43zM54.831 64.197h-9.86A1.972 1.972 0 0043 66.169v9.859c0 1.089.883 1.972 1.972 1.972h9.859a1.972 1.972 0 001.972-1.972v-9.86a1.972 1.972 0 00-1.972-1.971zm-4.93-7.394a6.902 6.902 0 100-13.804 6.902 6.902 0 000 13.804zM78 76.028l-6.9-11.83-6.902 11.83c0 1.09.883 1.972 1.972 1.972h9.86A1.972 1.972 0 0078 76.028z" fill="#fff"/></svg>