<svg width="35" height="36" fill="none" xmlns="http://www.w3.org/2000/svg"><path opacity=".3" d="M35 34.616c0 .609-7.835 1.103-17.5 1.103S0 35.225 0 34.616c0-.61 7.835-1.103 17.5-1.103s17.5.494 17.5 1.103z" fill="#000072"/><path d="M32.23 33.237a3.693 3.693 0 01-2.777 1.236H5.546a3.693 3.693 0 01-2.777-1.236 4.71 4.71 0 01-.859-1.423c-.6-1.564-.295-3.242.663-3.846 1.607-1.014 2.847.226 2.847.226.137-.317.323-.591.53-.826.784-.889 1.881-1.227 1.881-1.227-.596-3.36.736-6.406.736-6.406s3.281 2.436 8.932 2.436 8.933-2.436 8.933-2.436 1.332 3.045.735 6.406c0 0 1.757.542 2.411 2.053 0 0 1.24-1.24 2.848-.226 1.262.797 1.392 3.462-.196 5.269z" fill="#B11313"/><path opacity=".3" d="M6.377 31.292c.221-2.106-.953-3.015-.953-3.015.137-.316.323-.59.53-.826 1.823 2.14.423 3.841.423 3.841zm22.258 0c-.222-2.106.953-3.015.953-3.015a3.123 3.123 0 00-.531-.826c-1.822 2.14-.422 3.841-.422 3.841z" fill="#000072"/><path opacity=".3" d="M28.821 33.06a1.506 1.506 0 00-.52-.038c-.248.027-.676.069-1.303.115-.944.07-1.768-.627-1.832-1.555a2.854 2.854 0 01.055-.803c-.247 1.035-.702 1.988-.979 2.51-1.409.059-3.193.105-5.399.12-.119-4.188 2.358-8.113 2.358-8.113-3.794 2.98-7.39 0-7.39 0 2.503 4.364 2.373 7.93 2.373 7.93l.422.185c-2.41-.01-4.336-.06-5.837-.121-.277-.523-.732-1.476-.978-2.51.022.099.087.43.05.85-.078.908-.902 1.575-1.827 1.507a39.644 39.644 0 01-1.304-.114 1.506 1.506 0 00-.52.037c-2.72.665-4.227-1.104-4.276-1.163.19.499.474.986.858 1.423a3.693 3.693 0 002.777 1.236h23.913a3.693 3.693 0 002.777-1.236 4.68 4.68 0 00.858-1.423c-.048.059-1.556 1.828-4.276 1.163z" fill="#000072"/><path opacity=".3" d="M9.785 30.78l-.008-.033.008.032zm15.435 0l.008-.033-.007.032z" fill="#000072"/><path d="M17.496 34.312h11.957c1.003 0 1.947-.42 2.59-1.151.83-.946 1.24-2.255 1.068-3.417-.1-.68-.399-1.222-.82-1.488a2.019 2.019 0 00-2.536.192.25.25 0 01-.405-.076c-.603-1.392-2.241-1.91-2.258-1.916a.243.243 0 01-.17-.273c.475-2.671-.309-5.17-.609-5.989-.898.577-3.99 2.303-8.814 2.303s-7.916-1.726-8.814-2.303c-.3.819-1.084 3.318-.61 5.989a.243.243 0 01-.17.273c-.016.006-1.657.53-2.257 1.916a.25.25 0 01-.405.075c-.044-.044-1.124-1.083-2.537-.19-.42.265-.719.807-.82 1.487-.17 1.162.24 2.472 1.07 3.417a3.438 3.438 0 002.59 1.151h11.95zm11.957.487H5.546a3.937 3.937 0 01-2.965-1.32c-.922-1.05-1.376-2.507-1.184-3.804.122-.832.492-1.481 1.041-1.828 1.308-.825 2.41-.287 2.895.05.615-1.106 1.755-1.649 2.22-1.832-.517-3.31.731-6.219.786-6.343.03-.069.09-.12.164-.14a.251.251 0 01.213.042c.032.024 3.29 2.387 8.783 2.387 5.492 0 8.751-2.363 8.784-2.387a.252.252 0 01.376.098c.055.124 1.304 3.032.785 6.343.466.183 1.606.726 2.221 1.831.485-.335 1.588-.875 2.895-.05.549.348.919.997 1.042 1.829.19 1.297-.263 2.755-1.184 3.804a3.937 3.937 0 01-2.965 1.32" fill="#000072"/><path d="M5.56 28.08c.027.017.04.028.058.041l.049.038c.032.026.06.053.088.079.03.026.055.055.081.083a2.44 2.44 0 01.332.457c.148.258.247.537.316.817.066.282.091.569.091.851 0 .141-.016.282-.025.421a6.753 6.753 0 01-.075.413.049.049 0 01-.096-.001v-.004c-.024-.136-.04-.27-.058-.404l-.035-.199c-.013-.066-.018-.132-.036-.196-.033-.13-.051-.26-.093-.384-.018-.063-.033-.126-.053-.188l-.063-.183a3.888 3.888 0 00-.326-.686c-.034-.053-.065-.107-.102-.157l-.053-.076-.057-.072c-.036-.05-.078-.093-.117-.139-.02-.02-.04-.044-.06-.063l-.03-.03-.023-.022-.053-.105a.227.227 0 01.105-.307.237.237 0 01.235.015zm24.154.395l-.023.022-.03.03c-.02.019-.04.042-.06.063-.04.046-.08.09-.117.14l-.057.072-.053.076c-.037.05-.068.103-.102.156-.13.213-.237.444-.325.686l-.064.183c-.02.062-.034.125-.053.188-.042.124-.06.255-.093.384-.018.064-.023.13-.035.196l-.036.199c-.018.133-.033.268-.058.404v.004a.049.049 0 01-.057.039.049.049 0 01-.04-.038 6.794 6.794 0 01-.074-.413c-.01-.139-.025-.28-.025-.42 0-.283.025-.57.092-.852.068-.28.167-.56.315-.818a2.444 2.444 0 01.332-.456c.026-.028.051-.057.08-.083.03-.026.057-.053.09-.079l.048-.038a.83.83 0 01.058-.042.236.236 0 01.324.06c.05.071.053.16.016.231l-.053.106zM8.079 26.196l.02.194.025.217c.01.075.021.149.028.227.007.078.011.158.007.245a.025.025 0 01-.026.024.026.026 0 01-.014-.004 1 1 0 01-.19-.171 1.895 1.895 0 01-.262-.42c-.016-.04-.032-.078-.045-.12a.867.867 0 01-.035-.135.244.244 0 01.206-.278.247.247 0 01.285.215l.001.006zm19.338.057a.661.661 0 01-.034.136c-.013.04-.03.08-.046.118a1.893 1.893 0 01-.262.421 1 1 0 01-.19.171.026.026 0 01-.035-.006.024.024 0 01-.005-.013 1.64 1.64 0 01.008-.246c.006-.078.018-.152.027-.227l.025-.217.02-.194.001-.006a.247.247 0 01.272-.217.245.245 0 01.22.28z" fill="#000072"/><path d="M9.277 28.607s-1.133-.864-1.447-2.383c0 0-.653-.323-1.103.553 0 0 .52 2.675 3.05 3.971 0 0-.365-1.377-.5-2.14" fill="#0096F2"/><path d="M6.988 26.812c.102.408.652 2.273 2.403 3.428a28.152 28.152 0 01-.342-1.503c-.262-.223-1.117-1.032-1.431-2.325-.143-.024-.4.004-.63.4zm2.789 4.18a.252.252 0 01-.115-.028c-2.607-1.336-3.157-4.028-3.18-4.142a.24.24 0 01.023-.155c.282-.547.65-.702.91-.736a.97.97 0 01.526.076.244.244 0 01.131.169c.29 1.407 1.347 2.23 1.357 2.239a.244.244 0 01.092.15c.131.746.492 2.108.496 2.121a.24.24 0 01-.086.252.25.25 0 01-.154.053" fill="#000072"/><path d="M25.726 28.607s1.134-.864 1.448-2.383c0 0 .652-.323 1.103.553 0 0-.52 2.675-3.05 3.971 0 0 .365-1.377.5-2.14" fill="#0096F2"/><path d="M25.952 28.737a28.089 28.089 0 01-.342 1.503c1.75-1.155 2.3-3.02 2.403-3.428-.14-.24-.305-.375-.491-.399a.494.494 0 00-.14.002c-.314 1.291-1.168 2.099-1.43 2.322zm-.728 2.254a.25.25 0 01-.154-.053.24.24 0 01-.085-.252c.003-.013.364-1.375.495-2.12a.242.242 0 01.092-.151c.01-.008 1.067-.832 1.357-2.239a.244.244 0 01.131-.169.97.97 0 01.527-.076c.26.034.628.189.91.736a.24.24 0 01.021.155c-.022.114-.572 2.806-3.18 4.142a.252.252 0 01-.114.027" fill="#000072"/><path d="M12.695 22.392s.426 1.186.303 2.915l1.403 1.199s.367-2.09-.258-3.825l-1.448-.289z" fill="#0096F2"/><path d="M13.25 25.202l.958.82c.065-.667.12-1.974-.258-3.13l-.911-.182a8.55 8.55 0 01.21 2.492zm1.147 1.547a.25.25 0 01-.163-.06l-1.402-1.198a.241.241 0 01-.085-.2c.117-1.654-.286-2.807-.29-2.818a.24.24 0 01.047-.24.252.252 0 01.236-.08l1.448.29a.246.246 0 01.185.157c.638 1.775.283 3.86.268 3.947a.245.245 0 01-.244.202" fill="#000072"/><path d="M22.307 22.392s-.426 1.186-.303 2.915L20.6 26.506s-.366-2.09.258-3.825l1.448-.289z" fill="#0096F2"/><path d="M21.05 22.892c-.38 1.158-.325 2.464-.26 3.13l.96-.82a8.572 8.572 0 01.21-2.492l-.91.182zm-.448 3.857a.245.245 0 01-.244-.202c-.015-.088-.37-2.172.269-3.947a.246.246 0 01.184-.157l1.448-.29a.25.25 0 01.236.08.24.24 0 01.047.24c-.007.018-.407 1.17-.29 2.817a.241.241 0 01-.084.2l-1.403 1.2a.25.25 0 01-.163.059" fill="#000072"/><path d="M16.101 33.795c-.353 1.703-2.365 2.482-3.779 1.438-1.107-.816-2.322-2.683-3.073-6.776-.071-.393-.14-.806-.202-1.24l.478-.445 3.169-2.952s3.121 4.747 3.467 8.386c.054.564.041 1.1-.06 1.59z" fill="#B11313"/><path opacity=".3" d="M16.1 33.795c-.353 1.703-2.365 2.482-3.779 1.438-1.107-.816-2.322-2.683-3.073-6.776-1.057-.626-1.42-2.233-1.42-2.233-.455-2.135.07-4.103.07-4.103-.1 2.599.95 3.838 1.384 4.236.12.11.205.254.241.412l.001.003c.774 3.363 2.07 7.46 3.95 7.753 1.816.283 2.598-2.04 2.686-2.319a5.31 5.31 0 01-.06 1.59z" fill="#000072"/><path d="M12.966 23.593c.361.387.647.817.905 1.262.129.223.246.451.362.68.116.23.23.46.341.692.445.926.85 1.873 1.186 2.85.337.975.608 1.982.707 3.031.048.524.05 1.06-.04 1.596a2.703 2.703 0 01-.25.808 2.71 2.71 0 01-.504.7 2.741 2.741 0 01-2.404.744 2.747 2.747 0 01-.817-.294 2.823 2.823 0 01-.357-.238l-.161-.13c-.055-.043-.101-.092-.152-.138-.05-.048-.102-.093-.148-.142l-.138-.15c-.096-.097-.175-.206-.26-.31a7.735 7.735 0 01-.826-1.353c-.236-.47-.415-.957-.59-1.445a19.34 19.34 0 01-.43-1.486c-.06-.25-.124-.5-.173-.751-.05-.252-.11-.502-.147-.755a6.302 6.302 0 01-.075-1.54.054.054 0 01.06-.049c.02.002.037.015.045.033v.002c.104.241.181.485.249.73.066.246.134.49.186.737.05.248.108.493.163.739.052.246.12.489.182.732.126.487.278.966.442 1.439.176.468.357.935.587 1.374.225.441.482.864.784 1.246.078.093.15.191.236.276l.123.132c.042.044.088.082.131.123.045.04.086.084.133.12l.14.11a2.132 2.132 0 00.921.411 2.136 2.136 0 001.859-.592c.157-.158.29-.34.39-.54a2.112 2.112 0 00.198-.643c.08-.467.081-.956.038-1.443a10.468 10.468 0 00-.246-1.46 16.665 16.665 0 00-.413-1.442 26.106 26.106 0 00-1.131-2.803 35.743 35.743 0 00-.329-.684c-.111-.227-.229-.451-.338-.68-.22-.456-.426-.92-.59-1.41v-.001a.088.088 0 01.057-.112.091.091 0 01.094.024z" fill="#000072"/><path d="M9.943 31.535a.25.25 0 01-.182-.078.24.24 0 01.014-.344c.092-.083 2.289-2.046 5.652-2.293.136-.01.256.09.266.224a.245.245 0 01-.229.261c-3.185.234-5.332 2.146-5.353 2.166a.25.25 0 01-.168.064z" fill="#000072"/><path d="M18.9 33.796c.353 1.703 2.365 2.482 3.78 1.438 1.106-.816 2.321-2.683 3.072-6.776.072-.393.14-.806.202-1.24l-.478-.445-3.168-2.952s-3.122 4.747-3.468 8.386c-.054.564-.041 1.1.06 1.59z" fill="#B11313"/><path opacity=".3" d="M18.892 33.795c.353 1.703 2.365 2.482 3.78 1.438 1.106-.816 2.322-2.683 3.072-6.776 1.057-.626 1.42-2.233 1.42-2.233.456-2.135-.07-4.103-.07-4.103.1 2.599-.95 3.838-1.383 4.236a.807.807 0 00-.242.412v.003c-.774 3.363-2.07 7.46-3.95 7.753-1.816.283-2.599-2.04-2.687-2.319-.054.564-.041 1.1.06 1.59z" fill="#000072"/><path d="M22.186 23.682c-.163.49-.37.954-.59 1.41-.108.229-.226.453-.337.68-.113.227-.222.455-.329.684-.428.916-.814 1.85-1.13 2.803-.159.476-.3.957-.414 1.441a10.39 10.39 0 00-.246 1.461c-.044.487-.043.976.037 1.443a2.122 2.122 0 00.199.644 2.111 2.111 0 001.575 1.138 2.088 2.088 0 001.309-.23c.099-.057.193-.114.286-.188l.14-.11c.046-.036.088-.08.133-.12.043-.041.089-.08.13-.123l.124-.132c.085-.085.157-.183.235-.276.302-.382.56-.805.785-1.246.23-.44.41-.906.587-1.374.164-.473.315-.952.442-1.439.063-.243.13-.486.182-.732.054-.246.113-.491.162-.739.052-.247.12-.49.187-.736s.145-.49.248-.731v-.002a.055.055 0 01.072-.029c.02.008.031.026.033.045.045.52.007 1.034-.074 1.54-.037.253-.097.503-.148.755-.048.252-.113.5-.173.75-.12.5-.268.996-.43 1.487-.174.488-.354.976-.59 1.445-.23.47-.494.93-.825 1.353-.086.104-.165.213-.26.31l-.138.15c-.046.05-.099.094-.148.142-.051.046-.098.095-.152.138l-.162.13a2.817 2.817 0 01-.356.238c-.253.14-.53.24-.817.294a2.74 2.74 0 01-2.405-.745 2.716 2.716 0 01-.503-.699 2.715 2.715 0 01-.25-.808 6.193 6.193 0 01-.04-1.596c.099-1.049.37-2.056.706-3.031.337-.977.742-1.924 1.186-2.85.111-.232.225-.462.341-.692.117-.229.234-.457.362-.68.26-.445.544-.875.905-1.262a.091.091 0 01.127-.005c.027.024.035.06.025.092v.002z" fill="#000072"/><path d="M25.06 31.535a.25.25 0 01-.169-.064c-.021-.02-2.168-1.932-5.353-2.166a.245.245 0 01-.229-.26.246.246 0 01.266-.225c3.364.247 5.56 2.21 5.652 2.293a.24.24 0 01.014.344.25.25 0 01-.182.078z" fill="#000072"/><path d="M17.504 21.47c6.478 0 9.05-2.78 9.05-2.78s.108.24.16.58a1.542 1.542 0 01-.62 1.47c-1.019.753-3.614 2.186-8.593 2.186-4.98 0-7.575-1.433-8.594-2.185a1.542 1.542 0 01-.62-1.47c.053-.341.16-.58.16-.58s2.573 2.78 9.05 2.78" fill="#751313"/><path opacity=".3" d="M26.693 19.14a1.568 1.568 0 01-.597.899c-1.019.752-3.614 2.185-8.593 2.185-4.98 0-7.575-1.433-8.594-2.185a1.567 1.567 0 01-.596-.9 1.542 1.542 0 00.597 1.6c1.018.754 3.614 2.187 8.593 2.187s7.574-1.433 8.593-2.185a1.542 1.542 0 00.597-1.601z" fill="#000072"/><path d="M17.5 23.169c-4.972 0-7.611-1.4-8.742-2.234a1.778 1.778 0 01-.716-1.701c.057-.369.174-.631.179-.642a.25.25 0 01.41-.065c.024.026 2.592 2.7 8.866 2.7v.486c-5.358 0-8.077-1.856-8.932-2.58a2.385 2.385 0 00-.033.174c-.073.472.128.947.524 1.239 1.081.798 3.616 2.136 8.444 2.136 4.829 0 7.364-1.338 8.445-2.136.396-.293.597-.767.524-1.24a2.343 2.343 0 00-.033-.172c-.855.723-3.573 2.58-8.932 2.58v-.487c6.295 0 8.842-2.673 8.867-2.7a.25.25 0 01.41.065c.004.011.121.273.178.642.1.649-.174 1.3-.716 1.7-1.13.835-3.77 2.235-8.742 2.235z" fill="#000072"/><path d="M8.457 20.748l3.994 8.93m9.934.001l4.079-8.93" stroke="#000072" stroke-width=".2" stroke-miterlimit="10"/><path fill-rule="evenodd" clip-rule="evenodd" d="M17.208 24.395c-.002.021-.015.04-.024.062a.605.605 0 00-.024.064.497.497 0 00-.036.184.86.86 0 00.209-.006c.032.014.053.036.083.052-.006-.027.021-.033.045-.04-.01.011-.027.02-.021.042.013.006.016-.01.027-.012a.042.042 0 00.05 0c.012.001.009.013.021.014.018-.016-.008-.033-.015-.044.022.008.047.013.045.038.024-.01.053-.034.077-.05.062.008.142.013.215.008-.003-.122-.047-.216-.09-.31.012-.001.012.01.015.014.044.064.084.138.116.216.005.011.013.027.018.042.005.013.014.036.012.044-.005.016-.046.022-.054.036-.024-.02-.096-.014-.163-.016-.02 0-.045-.005-.057-.002-.026.005-.037.03-.05.044.036.001.065-.022.098-.024.02-.002.05.009.077.014.077.013.162.025.232.04a.633.633 0 00-.14-.404.708.708 0 01.197.324c.006.026.007.058.027.078-.025.018-.055.032-.08.05a.858.858 0 00-.334-.064.163.163 0 00-.075.024c.037.01.062.01.11.01.013 0 .03-.004.04-.002.01.001.026.016.041.026.086.057.163.1.265.145.032.015.05.03.086.01.006.19-.069.33-.16.458-.011.015-.018.032-.036.044a.727.727 0 00.122-.392c0-.016.004-.035 0-.05-.007-.02-.054-.04-.08-.058a3.296 3.296 0 00-.224-.125c-.017-.01-.03-.021-.044-.024-.015-.004-.038-.005-.054-.006-.02-.003-.04-.003-.057-.004.033.023.085.053.131.076.009.005.018-.002.027-.002.011.222-.014.44-.107.603a.325.325 0 01-.086.106c.127-.154.136-.418.11-.65.027-.015.015-.028-.01-.048a.428.428 0 00-.103-.061c-.002.01.003.02.009.03.006.009.018.017.02.025.005.018-.006.058-.011.079a.693.693 0 01-.093.195c-.012 0-.003-.016-.012-.02-.013 0-.005.015-.011.02a.531.531 0 01-.096-.195c-.007-.026-.017-.057-.012-.079.005-.017.033-.033.03-.053a.18.18 0 00-.074.038.352.352 0 00-.06.05c.002.008.015.01.018.018-.02.234-.019.497.113.649-.014-.001-.02-.013-.027-.02-.122-.132-.155-.335-.17-.546-.002-.046-.005-.091.004-.137.002-.01.018.004.027-.002.047-.024.089-.051.134-.076-.04.004-.082.002-.117.012-.03.008-.063.03-.092.046-.087.047-.18.1-.253.153a.74.74 0 00.12.448c-.106-.138-.204-.292-.194-.502.04.026.101-.016.134-.031a2.31 2.31 0 00.256-.15c.05.005.11 0 .151-.006-.052-.045-.187-.023-.267-.006a.554.554 0 00-.137.044c-.031-.014-.055-.033-.084-.048.021-.036.026-.096.042-.136.04-.1.1-.187.176-.268-.002.015-.018.029-.027.042a.655.655 0 00-.11.36c.069-.01.15-.024.232-.038.026-.005.054-.015.074-.014.033 0 .064.023.101.024a.11.11 0 00-.044-.044c-.061.004-.13-.003-.185.004a.085.085 0 00-.02.006s-.018.008-.015.008c-.013 0-.043-.03-.057-.032.029-.123.093-.221.155-.322zm.294-1.225v3.45z" fill="#000072"/><path d="M17.502 23.17v3.45m-1.098-3.474s.193 2.826-.09 3.327m-.776-3.381s.435 1.308-.194 3.074m3.158-2.996s-.202 2.504.09 3.356m.938-3.434s-.46 2.483.225 3.074" stroke="#000072" stroke-width=".2" stroke-miterlimit="10"/><path d="M14.637 23.588s.434-.408 1.006 0c0 0 .297-.405.792.056 0 0 .27-.504 1.065-.056 0 0 .335-.421.937 0 0 0 .473-.468 1.026-.023 0 0 .494-.528.921-.057m-2.946.728a1.233 1.233 0 00-.047-.031c-.54-.34-.933.04-.933.04-.402-.41-.774 0-.774 0-.624-.715-.961 0-.961 0" stroke="#000072" stroke-width=".2" stroke-miterlimit="10"/><path d="M17.422 24.243s.493-.388 1.012 0c0 0 .504-.48.946.022 0 0 .655-.496.9-.01m-5.557 1.185s.4-.649.821.054c0 0 .756-.513.917.204 0 0 .626-.313 1.063.201 0 0 .464-.532 1-.126 0 0 .359-.814.965-.186 0 0 .374-.679.79-.291" stroke="#000072" stroke-width=".2" stroke-miterlimit="10"/><path d="M14.684 25.827s.521-.52.75.073c0 0 .75-.333.96.266 0 0 .776-.4 1.099.24 0 0 .46-.425 1.011-.136 0 0 .508-.75 1.095-.307 0 0 .418-.701.668-.265" stroke="#000072" stroke-width=".2" stroke-miterlimit="10"/><path d="M10.11 31.47s2.31-2.386 5.232-2.156l.664 2.003s-.718 2.975-5.243 1.973l-.654-1.82z" fill="#000072"/><path d="M10.11 31.47s2.31-2.386 5.232-2.156l.664 2.003s-.718 2.975-5.243 1.973l-.654-1.82z" stroke="#000072" stroke-width=".2" stroke-miterlimit="10"/><path d="M18.89 31.81l.681-2.842 3.207.958 1.91 1.065v.82l-.448 1.479s-3.21 1.038-5.35-1.48z" fill="#000072"/><path d="M18.89 31.81l.681-2.842 3.207.958 1.91 1.065v.82l-.448 1.479s-3.21 1.038-5.35-1.48zM2.66 28.025l2.469 6.288M2.02 28.818s.426 2.91 2.288 5.447m-.646-6.482s1.928 3.215 2.226 6.58m-.99-6.338s1.17 2.29 1.83 6.288" stroke="#000072" stroke-width=".2" stroke-miterlimit="10"/><path d="M1.758 30.177s.005-.644.47-.395c0 0 .174-1.126.936-.41 0 0 .029-1.144 1.093-.459 0 0 .304-.838.942-.094 0 0 .316-.172.52.215" stroke="#000072" stroke-width=".2" stroke-miterlimit="10"/><path d="M2.09 29.212s.163-.833.814-.557c0 0 .129-.685.987-.457 0 0 .126-.448 1.144.125M1.848 30.52s.036-.646.533-.197c0 0 .156-1.117 1.025-.397 0 0 .023-1.094 1.033-.476 0 0 .372-.61 1.02-.078 0 0 .116-.319.44 0" stroke="#000072" stroke-width=".2" stroke-miterlimit="10"/><path d="M1.848 31.073s.201-.62.753-.082c0 0 .338-1.013 1.06-.327 0 0 .292-1.353 1.178-.424 0 0 .138-.883.843-.23 0 0 .053-.542.425-.106M2.02 31.542s.187-.511.734-.144c0 0 .595-.807 1.14-.23 0 0 .586-.868 1.145-.208 0 0 .29-.815.865-.247 0 0 .213-.304.385-.041m-4.074 1.472s.33-.557.753-.225c0 0 .37-.634 1.177-.106 0 0 .384-.859 1.175-.21 0 0 .285-.731.786-.068 0 0 .002-.71.352-.366M2.46 32.846v-.179s.222-.651.753-.226c0 0 .547-.617 1.126-.141 0 0 .6-.77 1.14-.156 0 0 .327-.673.811-.003m-3.417.924s.02-.347.546-.219c0 0 .563-.419 1.123-.028 0 0 .395-.688 1.065-.167 0 0 .464-.536.782-.082m-3.225.927s.203-.303.574-.088c0 0 .482-.46 1.006-.077 0 0 .364-.542.976-.152 0 0 .389-.494.776-.115m-2.932.74s.064-.321.412-.014c0 0 .407-.257.922.014 0 0 .56-.346.914-.074 0 0 .46-.339.765-.015m-2.423.313s.27-.28.885.055c0 0 .337-.202.645-.13.044.01.088.025.13.048m.041.084s.313-.267.843-.083" stroke="#000072" stroke-width=".2" stroke-miterlimit="10"/><path d="M6.46 31.075c-.094.208.267 3.48.267 3.48h4.508l-.096-.242-1.028-1.927-.643-1.81c-1.459-.203-2.89-3.557-2.89-3.557l-1.016 1.06.251.576.475 1.08.171 1.34z" fill="#000072"/><path d="M32.16 27.873l-2.207 6.44m2.795-5.654s-.393 4.11-2.234 5.752m.794-6.577s-1.495 3.525-2.204 6.518m.96-6.21s-1.088 2.004-1.652 6.582" stroke="#000072" stroke-width=".2" stroke-miterlimit="10"/><path d="M33.111 29.744s-.119-.57-.496-.186c0 0-.158-1.018-.901-.39 0 0-.21-.867-.863-.2 0 0-.508-.83-1.14 0 0 0-.131-.21-.438.066m3.877 1.287s-.14-.559-.655-.144c0 0-.299-.7-1.04-.251 0 0-.174-.71-.945-.247 0 0-.228-.54-.995-.157 0 0-.18-.341-.501.03m4.132 1.439s-.293-.602-.795-.212c0 0-.47-.652-1.147-.131 0 0-.256-.636-.908-.202 0 0-.334-.702-1.026-.206 0 0-.126-.37-.63-.063m4.387 1.358s-.173-.595-.858-.101c0 0-.467-.764-1.164-.199 0 0-.302-.778-.94-.142 0 0-.202-.634-.962-.152 0 0-.112-.496-.436-.07-.325.425-.086-.008-.086-.008m4.262 1.262s-.248-.664-.859-.143c0 0-.382-.542-1.167-.2 0 0-.474-.56-1.025 0 0 0-.374-.569-.866-.095 0 0-.192-.934-.654-.031m4.199.93s-.015-.607-.674-.119c0 0-.435-.595-1.2-.035 0 0-.413-.613-.972.034 0 0-.38-.593-.853-.019 0 0-.015-.99-.653-.214m4.037.867s-.098-.331-.625-.076c0 0-.572-.422-1.137-.01 0 0-.326-.451-.923-.047 0 0-.491-.421-.83-.018 0 0 .03-.753-.686-.175m3.822.728s-.08-.374-.518 0c0 0-.497-.328-1.055.068 0 0-.55-.342-.903 0 0 0-.379-.504-.78 0 0 0-.122-.666-.51-.117m3.434.241s-.182-.163-.364.073c0 0-.726-.21-1.015.211 0 0-.312-.333-.87 0 0 0-.274-.492-.683 0 0 0-.225-.655-.648 0" stroke="#000072" stroke-width=".2" stroke-miterlimit="10"/><path d="M25.683 30.524l1.449-1.372 1.14-1.898.14-.422.957 1.041.075.517-.518.578-.283.71-.121.846v.453l-.01.303s-.495 2.291-.24 3.193l-4.413.107-.144-.267.72-1.375.792-1.825.456-.59z" fill="#000072"/><path d="M24.875 21.63s-3.531 6.731-3.928 8.61m2.799-8.093s-3.452 6.787-3.147 7.36m6.445-7.73s-2.624 7.02-3.845 8.662" stroke="#000072" stroke-width=".2" stroke-miterlimit="10"/><path d="M22.31 23.169s.8-.83.997-.137c0 0 .536-.776.973-.244 0 0 1.04-.823 1.207.097 0 0 .946-.732 1.025.284 0 0 .343-.096.335.758 0 0 .309.663.219.92" stroke="#000072" stroke-width=".2" stroke-miterlimit="10"/><path d="M23.623 22.392s.625-.555.982-.245c0 0 .842-.838 1.28-.141 0 0 .833-.144.847.586 0 0 .337.415.311.577 0 0-.386 2.545-1.123 4.058 0 0-.978 3.295-1.974 3.56" stroke="#000072" stroke-width=".2" stroke-miterlimit="10"/><path d="M22.188 23.68s.5-.613.796 0c0 0 .733-.694.763 0 0 0 1.157-.55 1.31.14 0 0 .854-.598 1.027.425 0 0 .822-.302.561.74 0 0 .456-.118.37.537" stroke="#000072" stroke-width=".2" stroke-miterlimit="10"/><path d="M21.736 24.447s.727-.667.818.117c0 0 .704-.672.742.178 0 0 1.257-.634 1.229.242 0 0 .878-.275 1.035.55 0 0 .759-.25.838.446 0 0 .559-.034.507.41m-5.551-1.094s.56-.918.9-.005c0 0 .452-.402.658.167 0 0 1.101-.361 1.198.442 0 0 .745-.46 1.116.266 0 0 .864-.14.99.36 0 0 .394-.12.536.306m-5.617-1.004s.518-.266.672.338c0 0 .537-.46.752.092 0 0 .879-.33 1.16.362 0 0 .952-.354 1.261.298 0 0 .646-.168.998.262 0 0 .428-.158.486.271m-5.706-.913s.718-.524.717.355c0 0 .624-.434.71.107 0 0 .972-.276 1.212.451 0 0 .809-.579 1.208.305 0 0 .832-.438 1.02.283m-5.131-.659s.555-.588.74.071c0 0 .511-.425.7.178 0 0 .894-.243 1.196.41 0 0 .802-.338 1.193.334 0 0 .693-.435 1.052.227m-5.129-.666s.569-.346.748.105c0 0 .498-.338.69.164 0 0 .977-.197 1.129.396 0 0 .892-.25 1.238.341 0 0 .678-.236 1.07.232 0 0 .159-.094.159.336m-5.255-1.051s.608-.306.732.086c0 0 .652-.256.704.183 0 0 1.106-.246 1.172.395 0 0 .98-.288 1.124.387 0 0 .849-.343 1.037.418 0 0 .33-.154.427.314m-15.653-9.1s3.148 5.083 3.884 8.368m-2.075-7.387s2.352 4.232 3.132 7.032m-6.452-7.206s2.741 7.634 3.639 8.23m-3.751-6.805s2.218 6.803 2.879 7.151" stroke="#000072" stroke-width=".2" stroke-miterlimit="10"/><path d="M8.256 22.254s.061-.799.723-.336c0 0 .264-.572 1.015-.073 0 0 .199-.306.833-.057M8.096 23.82s.06-.562.527-.342c0 0 .144-.779.949-.234 0 0 .149-.82 1.037-.318 0 0 .558-.718 1.2 0 0 0 .47-.43.814 0m-4.678.219s.207-.342.454-.22c0 0 .267-.743.844-.412 0 0 .365-.539 1.025-.19 0 0 .686-.31 1.107-.117m-3.504 2.68s.08-.378.53-.16c0 0 .061-.572.577-.277 0 0 .132-.785 1.05-.299 0 0 .092-.916 1.065-.33 0 0 .428-.702 1.077-.196 0 0 .072-.4.57-.06M7.945 25.77s.206-.626.73-.248c0 0 .108-.668.646-.226 0 0 .399-.613.983-.312 0 0 .526-.832 1.207-.355 0 0 .495-.641 1.03-.263 0 0 .018-.244.524-.12M8.096 26.39s.14-.644.804-.224c0 0 .309-.44.71-.144 0 0 .346-.744 1.06-.316 0 0 .479-.678 1.248-.251 0 0 .352-.566 1.03-.242 0 0-.058-.333.456-.12M8.36 27.019s.154-.565.69-.282c0 0 .319-.59.804-.145 0 0 .214-.751 1.12-.238 0 0 .434-.655 1.231-.335 0 0 .317-.62 1.03-.24 0 0 .15-.308.51-.062M8.396 27.58s.218-.724.812-.561c0 0 .533-.283.802-.024 0 0 .768-.566 1.162-.163 0 0 .792-.616 1.273-.224 0 0 .54-.446 1.07-.135 0 0 .291-.314.65-.083m.342.863s-.552-.716-.68-.042c0 0-.943-.555-1.032.24 0 0-.926-.683-1.251.21 0 0-.947-.512-1.188.208 0 0-.603-.62-.697.17 0 0-.315-.118-.37.188m5.467-.358s-.51-.554-.646.074c0 0-.75-.485-1.068.17 0 0-.81-.401-1.124.344 0 0-.865-.474-1.095.343 0 0-.595-.236-.798.353 0 0-.306-.08-.457.355m5.308-1.165s-.385-.684-.565.168c0 0-.478-.292-1.038.308 0 0-.716-.241-1.109.224 0 0-.567-.153-.979.256a1.038 1.038 0 00-.066.072m.02-.026s-.529-.047-.804.437c0 0-.381.016-.558.458-.176.441-.082-.063-.082-.063" stroke="#000072" stroke-width=".2" stroke-miterlimit="10"/><path fill-rule="evenodd" clip-rule="evenodd" d="M17.453 3.183c6.075 0 10.748 6.21 10.748 11.396 0 5.186-8.565 7.281-10.748 7.384-2.182.102-11.193-2.35-11.193-7.536 0-5.185 5.118-11.244 11.193-11.244z" fill="#FF850B"/><path d="M17.456 3.435c-6.058 0-10.937 6.013-10.937 10.991 0 1.295.6 2.512 1.78 3.619 2.633 2.464 7.434 3.667 9.022 3.668.043 0 .084-.001.123-.003 1.15-.054 3.8-.635 6.09-1.76 2.013-.987 4.413-2.722 4.413-5.372 0-5.153-4.582-11.143-10.49-11.143zm-.129 18.782c-1.703 0-6.61-1.213-9.381-3.807-1.287-1.206-1.94-2.546-1.94-3.984 0-2.595 1.266-5.488 3.387-7.738 2.252-2.388 5.19-3.758 8.063-3.758 2.89 0 5.677 1.364 7.847 3.841 1.977 2.258 3.158 5.176 3.158 7.807 0 2.302-1.624 4.316-4.698 5.824-2.356 1.157-5.1 1.756-6.295 1.812a2.982 2.982 0 01-.14.003" fill="#000072"/><path opacity=".5" fill-rule="evenodd" clip-rule="evenodd" d="M17.453 3.182c3.733 0 6.937 2.346 8.852 5.358.02.098.04.195.056.294-1.748-2.517-4.475-4.177-7.494-4.625.194.072.306.157.306.248 0 .256-.878.464-1.96.464-1.083 0-1.96-.208-1.96-.464 0-.091.111-.176.305-.248a11.101 11.101 0 00-7.494 4.625l.01-.053c2.016-3.132 5.503-5.599 9.379-5.599z" fill="#fff"/><path fill-rule="evenodd" clip-rule="evenodd" d="M27.913 16.172c-1.51 4.027-8.516 5.699-10.46 5.79-1.923.09-9.15-1.805-10.838-5.805.13-2.18 1.257-2.775 3.341-1.71.857.438 1.73.895 2.42.547 3.944-1.986 6.352-1.611 9.052 0 1.262.754 2.494-.37 3.267-.713 2.462-1.092 3.591-.328 3.218 1.89z" fill="#fff"/><path opacity=".3" fill-rule="evenodd" clip-rule="evenodd" d="M28.154 13.673c.031.304.047.607.047.906 0 .19-.013.377-.035.56l.002-.055c-.3 3.46-7.395 6.103-11.212 6.317-3.186.178-9.55-3.191-10.62-6.317l.008.194a4.371 4.371 0 01-.084-.851c0-.233.01-.468.03-.704l.017-.05c2.488 3.512 6.568 5.606 10.924 5.606s8.436-2.094 10.923-5.606z" fill="#000072"/><path fill-rule="evenodd" clip-rule="evenodd" d="M13.525 12.016c-.34-.149-.688-.398-1.043-.748-.616.028-1.109.674-1.109 1.467 0 .81.515 1.468 1.15 1.468.634 0 1.149-.657 1.149-1.468 0-.261-.054-.507-.147-.72z" fill="#000072"/><path d="M23.173 10.634c-.415.541-.822.96-1.223 1.255-.59.435-1.227.511-1.298.032.317-.035.648-.18.991-.434.847-.625 1.112-1.027 1.53-.853z" fill="#000072"/><path fill-rule="evenodd" clip-rule="evenodd" d="M21.24 12.016c.339-.149.687-.398 1.042-.748.616.028 1.109.674 1.109 1.467 0 .81-.515 1.468-1.15 1.468-.635 0-1.15-.657-1.15-1.468 0-.261.054-.507.148-.72" fill="#000072"/><path fill-rule="evenodd" clip-rule="evenodd" d="M21.763 12.361a.346.346 0 00-.337.353c0 .195.15.353.337.353a.346.346 0 00.338-.353.346.346 0 00-.338-.353z" fill="#fff"/><path fill-rule="evenodd" clip-rule="evenodd" d="M17.235 12.993c.822 0 1.488.437 1.488.975s-.666.974-1.488.974c-.823 0-1.489-.436-1.489-.974s.666-.975 1.489-.975z" fill="#000072"/><path d="M18.655 16.137c-.524 0-1.03-.192-1.42-.534a1.982 1.982 0 01-1.62.478A1.95 1.95 0 0114.1 14.88a.25.25 0 01.147-.326.258.258 0 01.332.144c.184.467.611.806 1.115.885a1.456 1.456 0 001.339-.502.259.259 0 01.394-.004 1.629 1.629 0 002.61-.215.26.26 0 01.352-.087.25.25 0 01.088.345 2.134 2.134 0 01-1.823 1.017z" fill="#000072"/><path fill-rule="evenodd" clip-rule="evenodd" d="M17.234 15.24c.535.5 1.06.712 1.577.637.128 3.294-3.271 3.16-3.156-.046.633.079 1.16-.118 1.579-.591z" fill="#000072"/><path d="M15.912 16.1c.025.84.328 1.5.833 1.793.333.194.71.197 1.034.008.483-.283.761-.916.779-1.757-.437-.014-.876-.2-1.31-.555a1.91 1.91 0 01-1.325.512h-.011zm1.36 2.444c-.269 0-.54-.072-.789-.217-.73-.425-1.126-1.338-1.084-2.504l.01-.276.28.034c.548.069.99-.097 1.352-.506l.176-.199.194.182c.48.447.926.634 1.364.57l.283-.04.01.28c.046 1.16-.329 2.058-1.026 2.466-.24.14-.504.21-.77.21z" fill="#000072"/><path fill-rule="evenodd" clip-rule="evenodd" d="M17.262 17.061c-.457 0-.886.215-1.155.578.618.865 1.714.879 2.305-.007a1.436 1.436 0 00-1.15-.57z" fill="#F06"/><path d="M16.437 17.646c.238.258.537.397.848.394.3-.004.577-.144.795-.396a1.187 1.187 0 00-1.643.002zm.832.899c-.529 0-1.029-.276-1.375-.76l-.105-.147.108-.146a1.7 1.7 0 012.719-.009l.105.141-.098.147c-.322.483-.806.765-1.33.774h-.024z" fill="#000072"/><path fill-rule="evenodd" clip-rule="evenodd" d="M26.95 9.302c-1.648-2.676-3.625-4.488-5.93-5.436 4.521-6.223 6.498-4.41 5.93 5.436z" fill="#FF850B"/><path d="M21.415 3.76c2.024.908 3.81 2.498 5.321 4.737.276-6.068-.562-7.682-1.332-7.949-.589-.203-1.755.201-3.989 3.213zm5.746 6.369l-.429-.697c-1.612-2.617-3.567-4.411-5.81-5.333l-.297-.122.187-.257C22.88.873 24.437-.32 25.574.073c1.45.5 1.969 3.438 1.634 9.243l-.047.813z" fill="#000072"/><path fill-rule="evenodd" clip-rule="evenodd" d="M20.63 9.627c.38-.153.763-.097.855.124.093.222-.14.526-.52.68-.381.152-.764.097-.857-.125-.092-.222.14-.526.521-.679zm-6.629-.014c-.38-.154-.763-.098-.856.124-.092.221.141.525.521.678.38.154.764.098.856-.124.093-.221-.14-.525-.52-.678zm-1.308 2.748a.346.346 0 00-.338.353c0 .195.152.353.338.353a.346.346 0 00.337-.353.346.346 0 00-.337-.353z" fill="#fff"/><path fill-rule="evenodd" clip-rule="evenodd" d="M7.685 9.43c1.649-2.677 3.625-4.488 5.93-5.436-4.521-6.223-6.498-4.41-5.93 5.436z" fill="#FF850B"/><path d="M9.507.632a.834.834 0 00-.275.044C8.462.943 7.624 2.557 7.9 8.624c1.51-2.238 3.297-3.828 5.32-4.736-1.927-2.6-3.06-3.256-3.712-3.256zm-2.032 9.625l-.047-.813C7.093 3.638 7.612.701 9.062.2c1.136-.392 2.694.801 4.762 3.648l.187.257-.297.122c-2.243.922-4.198 2.716-5.81 5.333l-.43.697z" fill="#000072"/><path opacity=".65" fill-rule="evenodd" clip-rule="evenodd" d="M13.044 4.247c.187-.09.376-.175.567-.254C10.809.136 8.984-.633 8.137 1.683 9.039.055 10.675.91 13.044 4.247z" fill="#fff"/><path fill-rule="evenodd" clip-rule="evenodd" d="M8.919 7.615a13.75 13.75 0 012.733-2.535C9.369.714 8.458 1.56 8.919 7.615z" fill="#000072"/><path d="M9.507 2.59a.088.088 0 00-.023.002c-.028.007-.271.106-.376 1.218-.07.749-.062 1.813.025 3.168.663-.738 1.397-1.4 2.19-1.975-1.2-2.254-1.699-2.414-1.816-2.414zm-.795 5.679l-.048-.635c-.35-4.608.147-5.38.68-5.528.639-.177 1.397.679 2.537 2.859l.102.194-.181.126A13.561 13.561 0 009.12 7.774l-.408.495z" fill="#000072"/><path opacity=".3" fill-rule="evenodd" clip-rule="evenodd" d="M9.213 2.483c-.832.612-1.37 2.267-1.613 4.965.014.62.042 1.28.082 1.982.123-.22.254-.435.391-.648l-.01.053a15.353 15.353 0 012.147-2.593c-.447.415-.87.862-1.266 1.34l-.023.028-.002.003-.002.002c-.223-2.934-.124-4.644.296-5.132zm16.205-.128c.833.612 1.371 2.267 1.614 4.966-.014.62-.042 1.28-.082 1.981a12.502 12.502 0 00-.391-.648l.01.053a15.336 15.336 0 00-2.148-2.592c.448.415.87.861 1.266 1.34l.024.028.002.003.002.002c.223-2.934.124-4.645-.297-5.133" fill="#000072"/><path opacity=".65" fill-rule="evenodd" clip-rule="evenodd" d="M21.584 4.12a9.993 9.993 0 00-.566-.254C23.82.01 25.644-.76 26.492 1.556c-.903-1.628-2.538-.774-4.908 2.564z" fill="#fff"/><path fill-rule="evenodd" clip-rule="evenodd" d="M25.72 7.487a13.75 13.75 0 00-2.734-2.535C25.27.586 26.18 1.432 25.72 7.487z" fill="#000072"/><path d="M23.312 4.876a14.033 14.033 0 012.19 1.975c.087-1.355.095-2.419.025-3.168-.105-1.112-.349-1.21-.376-1.218-.05-.014-.523-.06-1.84 2.411zm2.61 3.266l-.407-.495a13.556 13.556 0 00-2.682-2.489l-.18-.127.1-.193c1.14-2.18 1.899-3.035 2.537-2.859.534.148 1.032.92.68 5.528l-.047.635zM9.507.632a.834.834 0 00-.274.044C8.462.943 7.623 2.557 7.9 8.624c1.51-2.238 3.297-3.828 5.32-4.736-1.928-2.6-3.06-3.256-3.713-3.256zm-2.032 9.625l-.047-.813C7.093 3.638 7.613.701 9.062.2c1.136-.392 2.694.801 4.762 3.648l.187.257-.297.122c-2.243.922-4.198 2.716-5.81 5.333l-.43.697z" fill="#000072"/><path d="M17.456 3.435c-6.058 0-10.937 6.013-10.937 10.991 0 1.295.6 2.512 1.78 3.619 2.633 2.464 7.434 3.667 9.022 3.668.043 0 .084-.001.123-.003 1.15-.054 3.8-.635 6.09-1.76 2.013-.987 4.413-2.722 4.413-5.372 0-5.153-4.582-11.143-10.49-11.143zm-.129 18.782c-1.703 0-6.61-1.213-9.381-3.807-1.287-1.206-1.94-2.546-1.94-3.984 0-2.595 1.266-5.488 3.387-7.738 2.252-2.388 5.19-3.758 8.063-3.758 2.89 0 5.677 1.364 7.847 3.841 1.977 2.258 3.158 5.176 3.158 7.807 0 2.302-1.624 4.316-4.698 5.824-2.356 1.157-5.1 1.756-6.295 1.812a2.982 2.982 0 01-.14.003" fill="#000072"/><path opacity=".56" fill-rule="evenodd" clip-rule="evenodd" d="M17.723 13.384c.224.058.39.164.37.236-.019.073-.216.085-.441.027-.225-.058-.39-.164-.371-.237.02-.073.217-.085.442-.026z" fill="#fff"/><path d="M11.775 10.634c.415.541.823.96 1.223 1.255.59.435 1.228.511 1.298.032-.317-.035-.647-.18-.99-.434-.848-.625-1.112-1.027-1.53-.853zm9.64-6.874c2.024.908 3.81 2.498 5.321 4.737.276-6.068-.562-7.682-1.332-7.949-.589-.203-1.755.201-3.989 3.213zm5.746 6.369l-.429-.697c-1.612-2.617-3.567-4.411-5.81-5.333l-.297-.122.187-.257C22.88.873 24.437-.32 25.574.073c1.45.5 1.969 3.438 1.634 9.243l-.047.813z" fill="#000072"/></svg>