<svg width="120" height="120" fill="none" xmlns="http://www.w3.org/2000/svg"><rect opacity=".1" width="120" height="120" rx="20" fill="#FF9429"/><rect x="25" y="25" width="70" height="70" rx="20" fill="#FF9429"/><path fill-rule="evenodd" clip-rule="evenodd" d="M66.438 43a6.569 6.569 0 016.19 4.375H53.312a10.937 10.937 0 00-10.937 10.938v10.565A6.565 6.565 0 0138 62.688V49.562A6.563 6.563 0 0144.563 43h21.874zm8.75 8.75H53.311a6.563 6.563 0 00-6.562 6.563v13.124A6.563 6.563 0 0053.313 78h21.874a6.563 6.563 0 006.563-6.563V58.313a6.563 6.563 0 00-6.563-6.563zm-6.563 13.125a4.375 4.375 0 11-8.75 0 4.375 4.375 0 018.75 0z" fill="#fff" opacity=".6"/><rect opacity=".1" width="120" height="120" rx="20" fill="#FF9429"/><rect x="25" y="25" width="70" height="70" rx="20" fill="#FF9429"/><path fill-rule="evenodd" clip-rule="evenodd" d="M66.438 43a6.569 6.569 0 016.19 4.375H53.312a10.937 10.937 0 00-10.937 10.938v10.565A6.565 6.565 0 0138 62.688V49.562A6.563 6.563 0 0144.563 43h21.874zm8.75 8.75H53.311a6.563 6.563 0 00-6.562 6.563v13.124A6.563 6.563 0 0053.313 78h21.874a6.563 6.563 0 006.563-6.563V58.313a6.563 6.563 0 00-6.563-6.563zm-6.563 13.125a4.375 4.375 0 11-8.75 0 4.375 4.375 0 018.75 0z" fill="#fff"/></svg>