<svg width="120" height="120" fill="none" xmlns="http://www.w3.org/2000/svg"><rect opacity=".1" width="120" height="120" rx="20" fill="#0096F2"/><rect x="25" y="25" width="70" height="70" rx="20" fill="#0096F2"/><path d="M60.5 43C50.85 43 43 50.851 43 60.5 43 70.164 50.836 78 60.5 78 70.15 78 78 70.15 78 60.5 78 50.836 70.165 43 60.5 43zm0 26.334a7.909 7.909 0 110-15.817h.354l-1.187-1.187a1.178 1.178 0 111.666-1.665l3.365 3.365a1.178 1.178 0 010 1.666l-3.365 3.365a1.178 1.178 0 11-1.666-1.666l1.514-1.514c-.2-.008-.429-.008-.681-.008a5.553 5.553 0 105.553 5.553 1.178 1.178 0 112.356 0 7.918 7.918 0 01-7.909 7.908z" fill="#fff"/></svg>