<svg width="107" height="116" fill="none" xmlns="http://www.w3.org/2000/svg"><rect opacity=".1" width="107" height="107" rx="20" fill="#fff"/><g filter="url(#filter0_di_4432_3)"><path fill-rule="evenodd" clip-rule="evenodd" d="M61.78 33a3.975 3.975 0 00-3.967 3.983c0 2.2 1.776 3.982 3.968 3.982h7.704L54.828 56.233l-7.32-7.348a3.96 3.96 0 00-5.655.043L25.12 66.244a3.993 3.993 0 00.086 5.632 3.957 3.957 0 005.61-.086l13.93-14.413 7.33 7.357a3.96 3.96 0 005.662-.053l17.327-18.048v7.32a3.975 3.975 0 003.968 3.982A3.975 3.975 0 0083 53.952v-16.97A3.975 3.975 0 0079.032 33H61.781z" fill="url(#paint0_linear_4432_3)"/></g><defs><linearGradient id="paint0_linear_4432_3" x1="53.5" y1="33" x2="53.5" y2="73" gradientUnits="userSpaceOnUse"><stop stop-color="#E75C5C"/><stop offset="1" stop-color="#E13600"/></linearGradient><filter id="filter0_di_4432_3" x=".162" y="20.164" width="106.676" height="95.01" filterUnits="userSpaceOnUse" color-interpolation-filters="sRGB"><feFlood flood-opacity="0" result="BackgroundImageFix"/><feColorMatrix in="SourceAlpha" values="0 0 0 0 0 0 0 0 0 0 0 0 0 0 0 0 0 0 127 0" result="hardAlpha"/><feOffset dy="18.337"/><feGaussianBlur stdDeviation="11.919"/><feColorMatrix values="0 0 0 0 0.679167 0 0 0 0 0.104705 0 0 0 0 0.104705 0 0 0 0.37 0"/><feBlend in2="BackgroundImageFix" result="effect1_dropShadow_4432_3"/><feBlend in="SourceGraphic" in2="effect1_dropShadow_4432_3" result="shape"/><feColorMatrix in="SourceAlpha" values="0 0 0 0 0 0 0 0 0 0 0 0 0 0 0 0 0 0 127 0" result="hardAlpha"/><feOffset dy="-18.337"/><feGaussianBlur stdDeviation="6.418"/><feComposite in2="hardAlpha" operator="arithmetic" k2="-1" k3="1"/><feColorMatrix values="0 0 0 0 0 0 0 0 0 0 0 0 0 0 0 0 0 0 0.2 0"/><feBlend in2="shape" result="effect2_innerShadow_4432_3"/></filter></defs></svg>