<svg width="35" height="36" viewBox="0 0 35 36" fill="none" xmlns="http://www.w3.org/2000/svg">
<g opacity="0.300003">
<g opacity="0.300003">
<path opacity="0.300003" d="M35 34.6159C35 35.225 27.165 35.7188 17.5 35.7188C7.83502 35.7188 0 35.225 0 34.6159C0 34.0069 7.83502 33.5131 17.5 33.5131C27.165 33.5131 35 34.0069 35 34.6159Z" fill="#000072"/>
</g>
</g>
<path d="M32.2299 33.2368C31.5354 34.0277 30.5166 34.4727 29.4527 34.4727H5.54576C4.48188 34.4727 3.46302 34.0277 2.76853 33.2368C2.38485 32.7996 2.1012 32.3126 1.91043 31.8143C1.90971 31.8143 1.90971 31.8143 1.90971 31.8136C1.30954 30.25 1.61534 28.572 2.57276 27.9685C4.18037 26.9537 5.42001 28.1938 5.42001 28.1938C5.5572 27.8773 5.74296 27.6029 5.95088 27.3678C6.73396 26.4793 7.83142 26.141 7.83142 26.141C7.23482 22.7802 8.56664 19.7351 8.56664 19.7351C8.56664 19.7351 11.8483 22.171 17.4992 22.171C23.1501 22.171 26.4318 19.7351 26.4318 19.7351C26.4318 19.7351 27.7636 22.7802 27.167 26.141C27.167 26.141 28.924 26.6828 29.5784 28.1938C29.5784 28.1938 30.8181 26.9537 32.4257 27.9685C33.6882 28.765 33.8175 31.4297 32.2299 33.2368Z" fill="#B11313"/>
<g opacity="0.300003">
<g opacity="0.300003">
<path opacity="0.300003" d="M6.37696 31.292C6.59846 29.1859 5.42383 28.2771 5.42383 28.2771C5.56101 27.9606 5.74678 27.6862 5.9547 27.4511C7.77666 29.5916 6.37696 31.292 6.37696 31.292Z" fill="#000072"/>
</g>
</g>
<g opacity="0.300003">
<g opacity="0.300003">
<path opacity="0.300003" d="M28.6347 31.292C28.4132 29.1859 29.5878 28.2771 29.5878 28.2771C29.4506 27.9606 29.2649 27.6862 29.057 27.4511C27.235 29.5916 28.6347 31.292 28.6347 31.292Z" fill="#000072"/>
</g>
</g>
<g opacity="0.300003">
<g opacity="0.300003">
<path opacity="0.300003" d="M28.8213 33.0596C28.651 33.018 28.4755 33.0036 28.3012 33.0225C28.0527 33.0492 27.6252 33.0908 26.9982 33.137C26.0545 33.2064 25.2303 32.5099 25.1659 31.5825C25.1382 31.1841 25.1989 30.8748 25.2209 30.7791C24.9745 31.8138 24.5194 32.7671 24.242 33.2899C22.8335 33.3476 21.0495 33.3945 18.8434 33.4083C18.7244 29.2214 21.2007 25.2956 21.2007 25.2956C17.4066 28.2768 13.8108 25.2956 13.8108 25.2956C16.3144 29.6603 16.1841 33.2265 16.1841 33.2265L16.6057 33.4106C14.1966 33.4007 12.2699 33.3514 10.7695 33.29C10.492 32.7672 10.037 31.8139 9.79052 30.7791C9.81339 30.8787 9.87813 31.2093 9.84175 31.6309C9.76344 32.5384 8.93854 33.2051 8.0139 33.137C7.38651 33.0908 6.95884 33.0492 6.71028 33.0225C6.53589 33.0036 6.36039 33.018 6.19016 33.0596C3.46996 33.7248 1.96259 31.9558 1.91406 31.8973C2.10483 32.3956 2.38848 32.8826 2.77217 33.3198C3.46665 34.1107 4.48552 34.5557 5.5494 34.5557H17.5057H29.462C30.5259 34.5557 31.5448 34.1107 32.2393 33.3198C32.6229 32.8826 32.9066 32.3956 33.0974 31.8973C33.0488 31.9558 31.5415 33.7248 28.8213 33.0596Z" fill="#000072"/>
</g>
</g>
<g opacity="0.300003">
<g opacity="0.300003">
<path opacity="0.300003" d="M9.78496 30.7793C9.78032 30.7587 9.77734 30.7475 9.77734 30.7475C9.77979 30.7581 9.78247 30.7687 9.78496 30.7793Z" fill="#000072"/>
</g>
</g>
<g opacity="0.300003">
<g opacity="0.300003">
<path opacity="0.300003" d="M25.2207 30.7793C25.2232 30.7687 25.2259 30.7582 25.2283 30.7475C25.2283 30.7475 25.2254 30.7588 25.2207 30.7793Z" fill="#000072"/>
</g>
</g>
<path d="M17.4962 34.3122H29.4526C30.4556 34.3122 31.3995 33.8926 32.0424 33.1609C32.873 32.2155 33.2825 30.9064 33.1113 29.7444C33.011 29.0641 32.7124 28.5216 32.2919 28.2561C30.8701 27.3583 29.7997 28.4027 29.7548 28.4475C29.6969 28.5055 29.6134 28.5314 29.5321 28.5161C29.4508 28.501 29.3826 28.447 29.3502 28.3723C28.7474 26.9803 27.109 26.4615 27.0925 26.4564C26.974 26.4199 26.9013 26.3027 26.9227 26.1825C27.3971 23.5117 26.6134 21.0128 26.3133 20.194C25.4148 20.771 22.3231 22.4975 17.4991 22.4975C12.6751 22.4975 9.58332 20.771 8.68486 20.194C8.38476 21.0128 7.60102 23.5117 8.07548 26.1825C8.09683 26.3027 8.0242 26.4199 7.90562 26.4564C7.88943 26.4615 6.24844 26.9859 5.64799 28.3723C5.61561 28.447 5.54738 28.501 5.46613 28.5161C5.3849 28.5313 5.30125 28.5055 5.24333 28.4475C5.19861 28.4034 4.11895 27.364 2.70626 28.2561C2.28579 28.5216 1.98712 29.0641 1.88689 29.7444C1.71567 30.9064 2.1252 32.2156 2.95573 33.1609C3.59864 33.8926 4.54259 34.3122 5.54556 34.3122H17.4962ZM29.4526 34.7988H5.54556C4.39843 34.7988 3.31776 34.3177 2.58069 33.4787C1.65915 32.4298 1.20543 30.9722 1.39662 29.6747C1.51918 28.8428 1.88916 28.1936 2.43839 27.8468C3.74551 27.0216 4.84841 27.5605 5.33306 27.8962C5.94781 26.7906 7.08841 26.2484 7.55392 26.0653C7.03553 22.7543 8.28436 19.8465 8.33885 19.7219C8.36888 19.6532 8.42942 19.6019 8.50299 19.5828C8.57667 19.5636 8.65507 19.5788 8.71577 19.6239C8.74787 19.6476 12.0067 22.0109 17.4991 22.0109C22.9915 22.0109 26.2503 19.6476 26.2826 19.6237C26.3434 19.5788 26.4219 19.5637 26.4953 19.5829C26.5688 19.6021 26.6294 19.6533 26.6593 19.7219C26.7138 19.8465 27.9626 22.7543 27.4442 26.0653C27.9098 26.2484 29.0504 26.7906 29.6651 27.8962C30.1497 27.5605 31.2525 27.0213 32.5598 27.8468C33.109 28.1936 33.479 28.8427 33.6016 29.6747C33.7928 30.9722 33.3391 32.4298 32.4175 33.4787C31.6804 34.3177 30.5997 34.7988 29.4526 34.7988" fill="#000072"/>
<path d="M5.55991 28.0792C5.58709 28.0974 5.59975 28.1075 5.61847 28.121C5.63623 28.134 5.65055 28.1463 5.66676 28.1591C5.69894 28.1846 5.72613 28.2115 5.75528 28.238C5.78512 28.2641 5.8097 28.2929 5.83649 28.3207C5.86347 28.3484 5.88879 28.377 5.91254 28.4065C6.01123 28.5227 6.09421 28.6479 6.1682 28.7772C6.3165 29.0358 6.41503 29.3147 6.48353 29.5954C6.5503 29.8774 6.57497 30.1636 6.57501 30.4463C6.57552 30.5875 6.55948 30.7283 6.54969 30.8675C6.52834 31.0065 6.50502 31.1444 6.47538 31.2804C6.46972 31.3063 6.44373 31.3228 6.41732 31.3173C6.39726 31.3131 6.38274 31.2973 6.37938 31.2786L6.37881 31.2752C6.35454 31.1387 6.33943 31.0041 6.32118 30.8707L6.28568 30.6721C6.27269 30.6065 6.26785 30.5402 6.25007 30.4758C6.21679 30.3468 6.19896 30.2165 6.15697 30.0919C6.13868 30.0292 6.12433 29.9657 6.10441 29.904L6.04054 29.7209C5.95243 29.4793 5.84478 29.2482 5.71508 29.0346C5.68132 28.9823 5.64971 28.9281 5.61301 28.8785L5.55997 28.8024L5.50308 28.7301C5.46701 28.6803 5.42517 28.6365 5.38602 28.5915C5.36582 28.5701 5.34579 28.547 5.32541 28.5279C5.31562 28.5182 5.30516 28.5066 5.29593 28.4981C5.28769 28.4903 5.27418 28.4779 5.27327 28.4761L5.21981 28.3706C5.16241 28.2574 5.20932 28.1199 5.32463 28.0635C5.40274 28.0253 5.49248 28.0343 5.55991 28.0792Z" fill="#000072"/>
<path d="M29.7139 28.4751C29.7129 28.4769 29.6994 28.4893 29.6912 28.4972C29.6819 28.5056 29.6715 28.5172 29.6617 28.527C29.6413 28.546 29.6213 28.5692 29.6011 28.5905C29.5619 28.6355 29.5201 28.6793 29.484 28.7292L29.4272 28.8015L29.3741 28.8776C29.3374 28.9271 29.3058 28.9813 29.272 29.0337C29.1423 29.2473 29.0347 29.4783 28.9466 29.7199L28.8827 29.903C28.8628 29.9647 28.8485 30.0283 28.8302 30.091C28.7882 30.2155 28.7703 30.3459 28.7371 30.4748C28.7193 30.5392 28.7144 30.6055 28.7015 30.6712L28.6659 30.8697C28.6477 31.0031 28.6326 31.1377 28.6083 31.2743L28.6077 31.2776C28.6031 31.3037 28.5778 31.3212 28.5512 31.3167C28.5309 31.3132 28.5158 31.298 28.5117 31.2794C28.4821 31.1435 28.4588 31.0056 28.4374 30.8665C28.4277 30.7273 28.4116 30.5865 28.4121 30.4453C28.4122 30.1626 28.4368 29.8764 28.5036 29.5945C28.5721 29.3137 28.6706 29.0349 28.8189 28.7762C28.8929 28.647 28.9759 28.5217 29.0746 28.4055C29.0983 28.3761 29.1237 28.3475 29.1506 28.3198C29.1774 28.2919 29.202 28.2632 29.2318 28.2371C29.261 28.2106 29.2882 28.1837 29.3204 28.1581C29.3366 28.1453 29.3509 28.133 29.3686 28.1201C29.3874 28.1065 29.4 28.0964 29.4272 28.0782C29.5336 28.007 29.6787 28.034 29.7513 28.1386C29.8004 28.2094 29.8036 28.2977 29.7675 28.3694L29.7139 28.4751Z" fill="#000072"/>
<path d="M8.07896 26.1956L8.09914 26.39L8.12436 26.6074C8.13324 26.6815 8.14505 26.7559 8.15157 26.8339C8.15884 26.9117 8.16314 26.9923 8.15913 27.0794L8.15911 27.0798C8.15849 27.0935 8.14668 27.1041 8.13272 27.1035C8.12772 27.1033 8.12313 27.1016 8.11933 27.099C8.04655 27.0487 7.98394 26.9909 7.92975 26.928C7.87425 26.8655 7.82884 26.7973 7.78454 26.7274C7.74124 26.6571 7.70181 26.584 7.6675 26.5073C7.65136 26.4687 7.63462 26.4298 7.62163 26.3888C7.61462 26.3686 7.60829 26.3477 7.60263 26.3263C7.5965 26.3031 7.5924 26.2862 7.58709 26.2534C7.5656 26.1206 7.65777 25.9958 7.79295 25.9748C7.92815 25.9536 8.05516 26.0442 8.07662 26.177C8.07732 26.1812 8.07788 26.1855 8.07835 26.1897L8.07896 26.1956Z" fill="#000072"/>
<path d="M27.4173 26.2534C27.412 26.2862 27.4079 26.3031 27.4018 26.3263C27.3961 26.3477 27.3898 26.3686 27.3828 26.3889C27.3698 26.4298 27.3531 26.4687 27.3369 26.5073C27.3026 26.584 27.2632 26.6571 27.2199 26.7274C27.1756 26.7973 27.1302 26.8655 27.0747 26.928C27.0205 26.9909 26.9579 27.0487 26.8851 27.099C26.8737 27.1069 26.8579 27.1042 26.8499 27.093C26.847 27.089 26.8455 27.0844 26.8453 27.0798L26.8453 27.0795C26.8413 26.9923 26.8456 26.9117 26.8529 26.8339C26.8594 26.7559 26.8712 26.6815 26.8801 26.6074L26.9053 26.39L26.9255 26.1956L26.926 26.1905C26.9399 26.0567 27.0615 25.9593 27.1977 25.973C27.3339 25.9866 27.433 26.1061 27.4191 26.2399C27.4187 26.2441 27.418 26.2492 27.4173 26.2534Z" fill="#000072"/>
<path d="M9.27749 28.6071C9.27749 28.6071 8.1436 27.7434 7.82974 26.2245C7.82974 26.2245 7.17741 25.9007 6.72656 26.7769C6.72656 26.7769 7.24664 29.4518 9.77736 30.748C9.77736 30.748 9.41167 29.371 9.27749 28.6071" fill="#0096F2"/>
<path d="M6.98826 26.8116C7.0904 27.22 7.6404 29.0852 9.39091 30.2401C9.28015 29.7986 9.13333 29.1886 9.04915 28.7371C8.78656 28.5136 7.93193 27.7049 7.61794 26.412C7.47535 26.3879 7.21865 26.4161 6.98826 26.8116ZM9.77698 30.9912C9.73786 30.9912 9.69858 30.9821 9.66247 30.9637C7.05549 29.6283 6.50507 26.9363 6.48291 26.8224C6.47265 26.7697 6.48047 26.715 6.50517 26.667C6.78678 26.1197 7.15502 25.9646 7.41434 25.9309C7.70128 25.8932 7.91741 25.9955 7.9411 26.0073C8.00878 26.0409 8.05707 26.103 8.07214 26.176C8.36278 27.5825 9.41867 28.4068 9.42929 28.4149C9.47775 28.4522 9.51078 28.506 9.52122 28.5656C9.65208 29.3106 10.0131 30.6729 10.0167 30.6865C10.0414 30.7796 10.0079 30.8783 9.93132 30.9382C9.88655 30.9733 9.83195 30.9912 9.77698 30.9912" fill="#000072"/>
<path d="M25.7264 28.6071C25.7264 28.6071 26.8603 27.7434 27.1742 26.2245C27.1742 26.2245 27.8265 25.9007 28.2774 26.7769C28.2774 26.7769 27.7573 29.4518 25.2266 30.748C25.2266 30.748 25.5923 29.371 25.7264 28.6071" fill="#0096F2"/>
<path d="M25.9521 28.7371C25.8679 29.1887 25.7211 29.7987 25.6103 30.2401C27.3608 29.0853 27.9108 27.2203 28.013 26.8115C27.8735 26.5714 27.7085 26.4375 27.5218 26.4132C27.4695 26.4064 27.4215 26.4092 27.3825 26.4153C27.0679 27.7064 26.2145 28.5137 25.9521 28.7371ZM25.2243 30.9912C25.1693 30.9912 25.1147 30.9732 25.07 30.9382C24.9933 30.8783 24.9599 30.7796 24.9846 30.6865C24.9882 30.6729 25.3492 29.3105 25.48 28.5656C25.4905 28.5058 25.5233 28.4522 25.572 28.415C25.5826 28.4068 26.6385 27.5825 26.9291 26.176C26.9442 26.103 26.9925 26.0409 27.0602 26.0073C27.0838 25.9955 27.2999 25.8932 27.5869 25.9309C27.8462 25.9646 28.2145 26.1197 28.4961 26.6671C28.5208 26.715 28.5286 26.7697 28.5184 26.8224C28.4962 26.9363 27.9458 29.6283 25.3388 30.9637C25.3027 30.9821 25.2634 30.9912 25.2243 30.9912" fill="#000072"/>
<path d="M12.6953 22.3923C12.6953 22.3923 13.121 23.5776 12.9985 25.307L14.4013 26.5059C14.4013 26.5059 14.7678 24.4165 14.1435 22.6812L12.6953 22.3923Z" fill="#0096F2"/>
<path d="M13.2491 25.2023L14.2083 26.022C14.2732 25.3553 14.3286 24.0481 13.95 22.8916L13.039 22.7098C13.1568 23.191 13.3139 24.0762 13.2491 25.2023ZM14.3969 26.749C14.3381 26.749 14.2801 26.7284 14.2343 26.6893L12.8316 25.4905C12.773 25.4404 12.7417 25.3662 12.7471 25.2901C12.8642 23.6375 12.4614 22.4843 12.4573 22.4728C12.4278 22.3903 12.4458 22.2984 12.5044 22.2324C12.563 22.1665 12.6532 22.1368 12.7403 22.1538L14.1884 22.4426C14.2737 22.4596 14.3437 22.5194 14.3727 22.6C15.0112 24.3747 14.6564 26.4592 14.641 26.5471C14.6258 26.6336 14.5643 26.7054 14.48 26.7349C14.4529 26.7444 14.4248 26.749 14.3969 26.749" fill="#000072"/>
<path d="M22.307 22.3923C22.307 22.3923 21.8813 23.5776 22.0038 25.307L20.6011 26.5059C20.6011 26.5059 20.2345 24.4165 20.8588 22.6812L22.307 22.3923Z" fill="#0096F2"/>
<path d="M21.0492 22.8916C20.6699 24.0502 20.7254 25.3562 20.7906 26.0222L21.7501 25.2023C21.6853 24.0762 21.8424 23.191 21.9601 22.7098L21.0492 22.8916ZM20.6023 26.749C20.5744 26.749 20.5463 26.7444 20.5192 26.7349C20.4349 26.7054 20.3734 26.6336 20.3582 26.5471C20.3428 26.4592 19.988 24.3747 20.6265 22.6C20.6555 22.5194 20.7255 22.4596 20.8108 22.4426L22.2589 22.1538C22.3463 22.1361 22.4366 22.1664 22.4951 22.2325C22.5536 22.2986 22.5714 22.3904 22.5419 22.473C22.5354 22.4912 22.1354 23.6424 22.2521 25.2901C22.2575 25.3662 22.2262 25.4404 22.1675 25.4905L20.7649 26.6893C20.7191 26.7284 20.6611 26.749 20.6023 26.749" fill="#000072"/>
<path d="M16.1011 33.7953C15.7481 35.4978 13.7361 36.2768 12.3221 35.2332C11.2154 34.417 10 32.5503 9.24908 28.4568C9.17763 28.0645 9.10975 27.6511 9.04688 27.2167L9.52487 26.7718L12.6936 23.82C12.6936 23.82 15.8153 28.5669 16.1611 32.2057V32.2064C16.2154 32.7699 16.2025 33.3068 16.1011 33.7953Z" fill="#B11313"/>
<g opacity="0.300003">
<g opacity="0.300003">
<path opacity="0.300003" d="M16.1002 33.7953C15.7472 35.4978 13.7352 36.2768 12.3212 35.2332C11.2145 34.417 9.99912 32.5503 9.24819 28.4568C8.19145 27.8315 7.82849 26.2237 7.82849 26.2237C7.37264 24.0888 7.89851 22.121 7.89851 22.121C7.79844 24.7195 8.84849 25.9591 9.28158 26.357C9.40226 26.4679 9.4866 26.6108 9.52335 26.7691C9.52357 26.77 9.52377 26.7709 9.52398 26.7718C10.2978 30.1347 11.5939 34.2318 13.4744 34.5251C15.2899 34.8079 16.0723 32.485 16.1602 32.2064C16.2145 32.77 16.2016 33.3068 16.1002 33.7953Z" fill="#000072"/>
</g>
</g>
<path d="M12.9664 23.5935C13.3272 23.9795 13.6125 24.41 13.8712 24.8548C13.9996 25.0777 14.1167 25.3064 14.233 25.5354C14.3494 25.7645 14.4633 25.9948 14.5744 26.2265C15.0191 27.1531 15.424 28.1005 15.7603 29.0768C16.097 30.0518 16.3681 31.0593 16.4669 32.1082C16.5145 32.6319 16.5174 33.1677 16.4268 33.7041C16.4072 33.8357 16.3785 33.9771 16.3344 34.1131C16.2944 34.2502 16.2377 34.3825 16.1762 34.5121C16.048 34.7692 15.8771 35.0063 15.6733 35.2113C15.2616 35.6174 14.7175 35.8913 14.1399 35.9718C13.8518 36.016 13.5559 36.0063 13.2688 35.9563C12.9819 35.9028 12.7049 35.8016 12.4516 35.6623C12.3277 35.5904 12.203 35.5112 12.0953 35.424L11.9339 35.2939C11.8793 35.2512 11.8325 35.2016 11.7816 35.1556C11.7324 35.1082 11.6801 35.0632 11.6337 35.0136L11.4956 34.8642C11.4002 34.7667 11.3212 34.6585 11.2356 34.5545C10.9049 34.131 10.6412 33.6704 10.4097 33.2009C10.1744 32.7317 9.99451 32.2437 9.82028 31.756C9.6586 31.2646 9.51133 30.7697 9.39018 30.2699C9.3303 30.0199 9.266 29.7707 9.21714 29.5189C9.16681 29.2673 9.10653 29.0175 9.06994 28.7638C8.98892 28.2577 8.9509 27.7447 8.99547 27.2243C8.99798 27.1949 9.0243 27.1731 9.05425 27.1755C9.07513 27.1772 9.09225 27.1904 9.09987 27.2081L9.10051 27.2096C9.2035 27.4514 9.28141 27.6954 9.34858 27.9408C9.41474 28.1863 9.48329 28.4302 9.53525 28.6771C9.58494 28.9246 9.64317 29.1696 9.69798 29.4155C9.75004 29.6622 9.81712 29.9046 9.87969 30.1483C10.0063 30.6352 10.1577 31.1139 10.3219 31.5869C10.498 32.0546 10.6789 32.5215 10.9089 32.961C11.1342 33.4021 11.3912 33.8254 11.6932 34.2067C11.7712 34.2995 11.8436 34.3981 11.9289 34.4829L12.0525 34.6148C12.0938 34.6586 12.1398 34.6966 12.1831 34.738C12.2278 34.7774 12.2692 34.8215 12.3164 34.8574L12.4558 34.9679C12.5483 35.0419 12.6427 35.0991 12.7413 35.1563C12.9404 35.2633 13.1549 35.3396 13.3766 35.3793C13.5986 35.4155 13.827 35.4223 14.0501 35.3856C14.4978 35.3206 14.919 35.102 15.2354 34.7872C15.393 34.629 15.5253 34.4466 15.6253 34.2478C15.6727 34.1472 15.7179 34.045 15.749 33.9377C15.7839 33.8316 15.8063 33.7232 15.8243 33.6036C15.9046 33.137 15.9054 32.6483 15.8621 32.1611C15.8182 31.673 15.73 31.1845 15.6158 30.7003C15.5023 30.2157 15.3604 29.7351 15.2025 29.2589C14.886 28.3063 14.4992 27.3722 14.0716 26.4562C13.9648 26.227 13.8551 25.9991 13.7431 25.7723C13.6315 25.5452 13.5141 25.321 13.4053 25.0924C13.1856 24.6361 12.9787 24.1724 12.8154 23.6822L12.8149 23.6806C12.7995 23.6343 12.8252 23.5844 12.8723 23.5693C12.9069 23.5582 12.9434 23.5689 12.9664 23.5935Z" fill="#000072"/>
<path d="M9.94307 31.5352C9.87637 31.5352 9.80983 31.5089 9.76103 31.457C9.66829 31.3583 9.67444 31.2045 9.77481 31.1134C9.86671 31.0299 12.0637 29.0668 15.4275 28.8198C15.5635 28.8091 15.6827 28.9103 15.6929 29.0443C15.7031 29.1783 15.6008 29.295 15.4644 29.3051C12.2791 29.539 10.1323 31.4515 10.111 31.4707C10.0634 31.5138 10.0031 31.5352 9.94307 31.5352Z" fill="#000072"/>
<path d="M18.9002 33.7962C19.2532 35.4988 21.2652 36.2778 22.6792 35.2342C23.7859 34.418 25.0013 32.5513 25.7522 28.4577C25.8237 28.0654 25.8916 27.6521 25.9544 27.2177L25.4764 26.7727L22.3077 23.821C22.3077 23.821 19.186 28.5679 18.8402 32.2067V32.2074C18.7859 32.7709 18.7988 33.3078 18.9002 33.7962Z" fill="#B11313"/>
<g opacity="0.300003">
<g opacity="0.300003">
<path opacity="0.300003" d="M18.8924 33.7953C19.2454 35.4978 21.2574 36.2768 22.6714 35.2332C23.7781 34.417 24.9935 32.5503 25.7444 28.4568C26.8012 27.8315 27.1641 26.2237 27.1641 26.2237C27.62 24.0888 27.0941 22.121 27.0941 22.121C27.1942 24.7195 26.1441 25.9591 25.711 26.357C25.5903 26.4679 25.506 26.6108 25.4693 26.7691C25.469 26.77 25.4688 26.7709 25.4686 26.7718C24.6948 30.1347 23.3987 34.2318 21.5182 34.5251C19.7027 34.8079 18.9203 32.485 18.8324 32.2064C18.7781 32.77 18.791 33.3068 18.8924 33.7953Z" fill="#000072"/>
</g>
</g>
<path d="M22.1861 23.6822C22.0229 24.1724 21.8159 24.6361 21.5962 25.0924C21.4875 25.321 21.37 25.5452 21.2585 25.7723C21.1464 25.9991 21.0367 26.227 20.93 26.4562C20.5024 27.3722 20.1156 28.3063 19.7991 29.2589C19.6411 29.735 19.4993 30.2156 19.3858 30.7003C19.2716 31.1845 19.1834 31.673 19.1395 32.161C19.0962 32.6483 19.097 33.137 19.1773 33.6036C19.1953 33.7231 19.2176 33.8316 19.2526 33.9377C19.2837 34.045 19.3289 34.1472 19.3762 34.2478C19.4763 34.4466 19.6086 34.629 19.7662 34.7872C20.0826 35.1019 20.5038 35.3206 20.9515 35.3857C21.1746 35.4223 21.403 35.4155 21.625 35.3793C21.8467 35.3396 22.0612 35.2632 22.2603 35.1563C22.3589 35.0991 22.4533 35.0419 22.5457 34.9679L22.6852 34.8574C22.7324 34.8215 22.7738 34.7774 22.8185 34.738C22.8618 34.6966 22.9078 34.6586 22.9491 34.6148L23.0727 34.483C23.158 34.3981 23.2303 34.2995 23.3084 34.2067C23.6104 33.8254 23.8674 33.4021 24.0927 32.961C24.3227 32.5215 24.5036 32.0546 24.6797 31.5869C24.8439 31.1139 24.9953 30.6352 25.1219 30.1483C25.1845 29.9046 25.2515 29.6622 25.3036 29.4155C25.3584 29.1696 25.4166 28.9246 25.4663 28.6771C25.5183 28.4302 25.5868 28.1862 25.653 27.9408C25.7202 27.6954 25.7981 27.4514 25.9011 27.2096L25.9017 27.2081C25.9133 27.1809 25.9452 27.1681 25.9729 27.1794C25.9922 27.1874 26.0044 27.2051 26.0061 27.2243C26.0507 27.7446 26.0127 28.2577 25.9316 28.7638C25.895 29.0175 25.8347 29.2673 25.7844 29.5189C25.7356 29.7707 25.6713 30.0199 25.6114 30.2699C25.4903 30.7697 25.343 31.2646 25.1813 31.756C25.0071 32.2437 24.8272 32.7317 24.5919 33.2008C24.3604 33.6704 24.0966 34.131 23.766 34.5545C23.6804 34.6585 23.6013 34.7667 23.506 34.8642L23.3678 35.0136C23.3215 35.0632 23.2692 35.1082 23.22 35.1556C23.169 35.2016 23.1222 35.2512 23.0677 35.2939L22.9063 35.424C22.7986 35.5112 22.6739 35.5904 22.5499 35.6623C22.2967 35.8016 22.0196 35.9028 21.7327 35.9563C21.4456 36.0063 21.1498 36.016 20.8617 35.9717C20.2841 35.8913 19.74 35.6174 19.3282 35.2113C19.1245 35.0063 18.9536 34.7692 18.8253 34.5121C18.7639 34.3825 18.7071 34.2502 18.6671 34.1131C18.623 33.9771 18.5944 33.8357 18.5748 33.7041C18.4842 33.1677 18.4871 32.6318 18.5346 32.1082C18.6335 31.0593 18.9046 30.0518 19.2412 29.0767C19.5776 28.1005 19.9825 27.1531 20.4272 26.2265C20.5382 25.9948 20.6522 25.7645 20.7685 25.5354C20.8849 25.3064 21.002 25.0777 21.1304 24.8548C21.3891 24.41 21.6743 23.9795 22.0351 23.5935C22.0687 23.5576 22.1255 23.5552 22.162 23.5881C22.1888 23.6123 22.1973 23.6486 22.1867 23.6805L22.1861 23.6822Z" fill="#000072"/>
<path d="M25.0592 31.5352C24.9991 31.5352 24.9388 31.5138 24.8912 31.4706C24.8699 31.4513 22.7231 29.5388 19.5378 29.3049C19.4014 29.2949 19.2991 29.1781 19.3093 29.0441C19.3195 28.9102 19.4385 28.809 19.5747 28.8197C22.9385 29.0667 25.1355 31.0298 25.2274 31.1133C25.3278 31.2045 25.334 31.3584 25.2411 31.457C25.1923 31.5089 25.1258 31.5352 25.0592 31.5352Z" fill="#000072"/>
<path d="M17.5041 21.4702C23.982 21.4702 26.5541 18.6907 26.5541 18.6907C26.5541 18.6907 26.662 18.93 26.7145 19.2702C26.8015 19.8334 26.558 20.3983 26.0943 20.7405C25.075 21.4926 22.4796 22.9258 17.5007 22.9258C12.5219 22.9258 9.92644 21.4926 8.90717 20.7405C8.44348 20.3983 8.19998 19.8334 8.28696 19.2702C8.33951 18.93 8.44742 18.6907 8.44742 18.6907C8.44742 18.6907 11.0195 21.4702 17.4974 21.4702" fill="#751313"/>
<g opacity="0.300003">
<g opacity="0.300003">
<path opacity="0.300003" d="M26.6928 19.1398C26.6094 19.493 26.4007 19.814 26.0962 20.0387C25.077 20.7908 22.4816 22.224 17.5027 22.224C12.5238 22.224 9.92838 20.7908 8.90911 20.0387C8.60463 19.814 8.39594 19.493 8.31258 19.1398C8.30398 19.1813 8.29594 19.2247 8.28892 19.2702C8.20192 19.8334 8.44542 20.3984 8.90911 20.7405C9.92838 21.4926 12.5238 22.9258 17.5027 22.9258C22.4816 22.9258 25.077 21.4926 26.0962 20.7405C26.5599 20.3984 26.8034 19.8334 26.7165 19.2702C26.7094 19.2247 26.7014 19.1813 26.6928 19.1398Z" fill="#000072"/>
</g>
</g>
<path d="M17.5005 23.1689C12.5283 23.1689 9.88896 21.7692 8.75822 20.9349C8.21607 20.5348 7.94158 19.8829 8.04188 19.2336C8.09871 18.8654 8.21576 18.603 8.22072 18.592C8.25466 18.5168 8.32496 18.4635 8.40764 18.4504C8.49018 18.4371 8.57412 18.466 8.63049 18.5269C8.65534 18.5535 11.2231 21.2268 17.4972 21.2268V21.7134C12.1385 21.7134 9.42028 19.8567 8.56505 19.1337C8.5527 19.187 8.54115 19.245 8.53162 19.3065C8.45874 19.7786 8.65956 20.2535 9.05577 20.5459C10.1371 21.3437 12.6722 22.6824 17.5005 22.6824C22.3289 22.6824 24.864 21.3437 25.9454 20.5459C26.3415 20.2535 26.5423 19.7786 26.4694 19.3065C26.4599 19.245 26.4484 19.187 26.436 19.1337C25.5808 19.8567 22.8625 21.7134 17.5039 21.7134V21.2268C23.7993 21.2268 26.3456 18.5539 26.3706 18.5269C26.4269 18.466 26.5108 18.4372 26.5934 18.4504C26.6761 18.4635 26.7464 18.5168 26.7803 18.592C26.7853 18.603 26.9024 18.8654 26.9592 19.2336C27.0595 19.8829 26.785 20.5348 26.2429 20.9349C25.1122 21.7692 22.4728 23.1689 17.5005 23.1689Z" fill="#000072"/>
<path d="M8.45703 20.7482L12.4511 29.6787" stroke="#000072" stroke-width="0.2" stroke-miterlimit="10"/>
<path d="M22.3848 29.6787L26.4636 20.7483" stroke="#000072" stroke-width="0.2" stroke-miterlimit="10"/>
<path fill-rule="evenodd" clip-rule="evenodd" d="M17.2077 24.395C17.2061 24.4165 17.1928 24.4357 17.1839 24.4569C17.1754 24.4774 17.1675 24.4993 17.1601 24.5209C17.1408 24.5769 17.1228 24.6321 17.1244 24.7047C17.1903 24.7132 17.2733 24.7069 17.3327 24.6987C17.3652 24.7129 17.3861 24.7348 17.4161 24.7507C17.4104 24.7235 17.4375 24.7184 17.4607 24.7107C17.4504 24.7224 17.4344 24.7303 17.4399 24.7527C17.4534 24.7587 17.4556 24.7426 17.4667 24.7407C17.482 24.7524 17.5014 24.7518 17.5173 24.7407C17.5286 24.7423 17.5256 24.7537 17.5381 24.7547C17.5557 24.7391 17.5305 24.7223 17.5232 24.7107C17.5453 24.7185 17.5704 24.7243 17.5679 24.7487C17.5919 24.7388 17.6212 24.7152 17.6452 24.6987C17.7072 24.7075 17.7865 24.7116 17.8595 24.7067C17.857 24.5851 17.8131 24.4914 17.7702 24.397C17.7821 24.3959 17.782 24.4064 17.7851 24.4109C17.8294 24.4752 17.8688 24.5487 17.9012 24.6268C17.9059 24.6381 17.9138 24.6535 17.919 24.6687C17.9236 24.682 17.9332 24.7052 17.9309 24.7127C17.9258 24.7291 17.8855 24.7346 17.8773 24.7487C17.8526 24.729 17.7812 24.7347 17.7137 24.7327C17.6945 24.7321 17.6689 24.7284 17.6571 24.7307C17.6312 24.7357 17.6198 24.7611 17.6065 24.7746C17.6432 24.7763 17.6722 24.7525 17.7047 24.7507C17.7254 24.7495 17.7556 24.7599 17.7821 24.7647C17.8589 24.7783 17.9444 24.7898 18.0143 24.8046C18.0185 24.6439 17.957 24.51 17.8744 24.4009C17.9565 24.477 18.0118 24.5661 18.0529 24.6707C18.0601 24.6888 18.0662 24.7061 18.0708 24.7247C18.0773 24.7509 18.0776 24.7832 18.0976 24.8026C18.0729 24.8207 18.0432 24.8354 18.0172 24.8526C17.9441 24.8233 17.8028 24.781 17.6839 24.7886C17.6554 24.7904 17.6303 24.8 17.6095 24.8126C17.6458 24.8224 17.671 24.8233 17.7196 24.8226C17.7317 24.8224 17.7492 24.8191 17.7583 24.8206C17.7686 24.8224 17.7852 24.8367 17.8 24.8466C17.8859 24.9043 17.9628 24.9466 18.0648 24.9925C18.0967 25.0068 18.1147 25.0214 18.1511 25.0025C18.1572 25.1921 18.0822 25.3321 17.9904 25.4601C17.9797 25.475 17.973 25.4923 17.9547 25.504C18.0237 25.3947 18.0767 25.2647 18.0767 25.1124C18.0767 25.0964 18.0813 25.0765 18.0767 25.0624C18.0703 25.0424 18.0235 25.0212 17.9964 25.0045C17.9195 24.9568 17.8583 24.9233 17.7732 24.8786C17.7565 24.8698 17.7423 24.8579 17.7286 24.8546C17.7141 24.851 17.6912 24.8503 17.675 24.8486C17.6547 24.8464 17.6352 24.8458 17.6184 24.8446C17.6513 24.8683 17.7035 24.8978 17.7494 24.9205C17.7577 24.9256 17.7665 24.9187 17.7762 24.9185C17.787 25.1413 17.7624 25.3595 17.669 25.522C17.6467 25.5608 17.622 25.5989 17.5827 25.6279C17.7096 25.4741 17.7192 25.21 17.6928 24.9785C17.7198 24.9628 17.7081 24.9497 17.6839 24.9305C17.6575 24.9095 17.6105 24.8788 17.5798 24.8686C17.5776 24.879 17.5829 24.8892 17.5887 24.8985C17.5945 24.9079 17.6074 24.9161 17.6095 24.9245C17.614 24.9424 17.6032 24.9816 17.5976 25.0025C17.5792 25.0714 17.5404 25.1471 17.5053 25.1983C17.493 25.1972 17.5017 25.1821 17.4934 25.1783C17.4802 25.1788 17.4882 25.1935 17.4815 25.1983C17.4406 25.1514 17.4056 25.0736 17.3863 25.0025C17.3794 24.977 17.3687 24.9464 17.3744 24.9245C17.3789 24.9071 17.4068 24.8914 17.4042 24.8706C17.3769 24.8748 17.3515 24.893 17.3298 24.9085C17.3081 24.9241 17.2856 24.9408 17.2703 24.9585C17.2721 24.9672 17.2848 24.9687 17.2881 24.9765C17.2686 25.2107 17.2692 25.4744 17.4012 25.6259C17.3873 25.6247 17.3808 25.6128 17.3744 25.6059C17.2515 25.474 17.2185 25.2706 17.2048 25.0604C17.2017 25.014 17.1986 24.9685 17.2077 24.9225C17.2103 24.9129 17.2256 24.9272 17.2345 24.9205C17.2815 24.8968 17.3238 24.8699 17.3685 24.8446C17.3296 24.8486 17.2873 24.8473 17.2524 24.8566C17.2221 24.8646 17.1889 24.8868 17.1601 24.9025C17.0728 24.9503 16.9807 25.0022 16.9072 25.0564C16.8922 25.2347 16.953 25.3784 17.0262 25.504C16.9206 25.3657 16.8225 25.2119 16.8328 25.0025C16.873 25.0281 16.9343 24.9864 16.9667 24.9705C17.0568 24.9262 17.153 24.8691 17.2226 24.8206C17.273 24.8256 17.3322 24.8216 17.3744 24.8146C17.3218 24.7696 17.187 24.7922 17.1066 24.8086C17.0526 24.8196 17.0022 24.8355 16.9697 24.8526C16.9388 24.8387 16.9151 24.8199 16.8863 24.8046C16.9074 24.7691 16.9119 24.7094 16.928 24.6687C16.9673 24.5695 17.0287 24.4817 17.1036 24.4009C17.1016 24.4163 17.0858 24.4295 17.0768 24.4429C17.0116 24.5403 16.9686 24.6611 16.9667 24.8026C17.0355 24.7921 17.1176 24.7792 17.1988 24.7647C17.2253 24.7599 17.2527 24.7502 17.2732 24.7507C17.3063 24.7514 17.3374 24.7744 17.3744 24.7746C17.3656 24.7559 17.3488 24.7425 17.3298 24.7307C17.2685 24.7354 17.2 24.728 17.1453 24.7347C17.1397 24.7353 17.1324 24.7375 17.1244 24.7407C17.1251 24.7404 17.1067 24.7486 17.1095 24.7487C17.0972 24.7486 17.0669 24.7198 17.053 24.7167C17.0816 24.594 17.1461 24.4955 17.2077 24.395Z" fill="#000072"/>
<path fill-rule="evenodd" clip-rule="evenodd" d="M17.502 23.1696V26.6201Z" fill="#000072"/>
<path d="M17.502 23.1696V26.6201" stroke="#000072" stroke-width="0.2" stroke-miterlimit="10"/>
<path d="M16.4042 23.1456C16.4042 23.1456 16.5973 25.9722 16.3145 26.4727" stroke="#000072" stroke-width="0.2" stroke-miterlimit="10"/>
<path d="M15.5376 23.0917C15.5376 23.0917 15.973 24.3995 15.3438 26.166" stroke="#000072" stroke-width="0.2" stroke-miterlimit="10"/>
<path d="M18.5016 23.1691C18.5016 23.1691 18.2997 25.6736 18.5917 26.5264" stroke="#000072" stroke-width="0.2" stroke-miterlimit="10"/>
<path d="M19.5309 23.0917C19.5309 23.0917 19.0693 25.5752 19.7548 26.166" stroke="#000072" stroke-width="0.2" stroke-miterlimit="10"/>
<path d="M14.6367 23.5879C14.6367 23.5879 15.0715 23.1803 15.6426 23.5879C15.6426 23.5879 15.9403 23.1833 16.4353 23.6436C16.4353 23.6436 16.7052 23.1397 17.4998 23.5879C17.4998 23.5879 17.8352 23.1667 18.4368 23.5879C18.4368 23.5879 18.9095 23.1203 19.4632 23.5647C19.4632 23.5647 19.9568 23.0369 20.3842 23.5083" stroke="#000072" stroke-width="0.2" stroke-miterlimit="10"/>
<path d="M17.4377 24.2357C17.4221 24.2249 17.4067 24.2146 17.3914 24.205C16.8502 23.8643 16.4575 24.2451 16.4575 24.2451C16.056 23.8358 15.6837 24.2451 15.6837 24.2451C15.0596 23.53 14.7227 24.2451 14.7227 24.2451" stroke="#000072" stroke-width="0.2" stroke-miterlimit="10"/>
<path d="M17.4219 24.2431C17.4219 24.2431 17.9152 23.8546 18.4342 24.2431C18.4342 24.2431 18.9384 23.7623 19.3799 24.2646C19.3799 24.2646 20.0352 23.7693 20.2796 24.2546" stroke="#000072" stroke-width="0.2" stroke-miterlimit="10"/>
<path d="M14.7227 25.4392C14.7227 25.4392 15.1231 24.7913 15.5445 25.4942C15.5445 25.4942 16.3002 24.9814 16.461 25.6976C16.461 25.6976 17.0868 25.3851 17.5242 25.8994C17.5242 25.8994 17.9876 25.367 18.5244 25.7731C18.5244 25.7731 18.8828 24.9589 19.4894 25.587C19.4894 25.587 19.8631 24.9081 20.2798 25.2955" stroke="#000072" stroke-width="0.2" stroke-miterlimit="10"/>
<path d="M14.6836 25.8273C14.6836 25.8273 15.205 25.3078 15.4331 25.9C15.4331 25.9 16.1841 25.5665 16.3938 26.1664C16.3938 26.1664 17.1699 25.7665 17.493 26.4062C17.493 26.4062 17.9522 25.9812 18.5043 26.27C18.5043 26.27 19.0116 25.5204 19.5989 25.9629C19.5989 25.9629 20.0168 25.2618 20.2668 25.6982" stroke="#000072" stroke-width="0.2" stroke-miterlimit="10"/>
<path d="M10.1094 31.4701C10.1094 31.4701 12.4205 29.0838 15.3417 29.3142L16.0057 31.3175C16.0057 31.3175 15.288 34.292 10.763 33.2898L10.1094 31.4701Z" fill="#000072"/>
<path d="M10.1094 31.4701C10.1094 31.4701 12.4205 29.0838 15.3417 29.3142L16.0057 31.3175C16.0057 31.3175 15.288 34.292 10.763 33.2898L10.1094 31.4701Z" stroke="#000072" stroke-width="0.2" stroke-miterlimit="10"/>
<path d="M18.8906 31.8101L19.5711 28.968L22.778 29.9256L24.6887 30.9912V31.8101L24.24 33.2899C24.24 33.2899 21.0295 34.328 18.8906 31.8101Z" fill="#000072"/>
<path d="M18.8906 31.8101L19.5711 28.968L22.778 29.9256L24.6887 30.9912V31.8101L24.24 33.2899C24.24 33.2899 21.0295 34.328 18.8906 31.8101Z" stroke="#000072" stroke-width="0.2" stroke-miterlimit="10"/>
<path d="M2.66016 28.0251L5.12893 34.3125" stroke="#000072" stroke-width="0.2" stroke-miterlimit="10"/>
<path d="M2.01953 28.8184C2.01953 28.8184 2.44611 31.7287 4.30825 34.2646" stroke="#000072" stroke-width="0.2" stroke-miterlimit="10"/>
<path d="M3.66211 27.7831C3.66211 27.7831 5.59035 30.9985 5.88827 34.3633" stroke="#000072" stroke-width="0.2" stroke-miterlimit="10"/>
<path d="M4.89844 28.0251C4.89844 28.0251 6.06791 30.315 6.72724 34.3125" stroke="#000072" stroke-width="0.2" stroke-miterlimit="10"/>
<path d="M1.75781 30.1768C1.75781 30.1768 1.76269 29.5328 2.22875 29.7825C2.22875 29.7825 2.40217 28.6563 3.16398 29.3713C3.16398 29.3713 3.19283 28.228 4.25747 28.9135C4.25747 28.9135 4.56113 28.0745 5.19884 28.8187C5.19884 28.8187 5.51512 28.647 5.71862 29.0342" stroke="#000072" stroke-width="0.2" stroke-miterlimit="10"/>
<path d="M2.08984 29.2119C2.08984 29.2119 2.25329 28.3791 2.90395 28.655C2.90395 28.655 3.03278 27.9704 3.89081 28.1981C3.89081 28.1981 4.01706 27.7504 5.03519 28.3226" stroke="#000072" stroke-width="0.2" stroke-miterlimit="10"/>
<path d="M1.84766 30.5195C1.84766 30.5195 1.88358 29.8742 2.38062 30.3232C2.38062 30.3232 2.53723 29.2059 3.40561 29.9259C3.40561 29.9259 3.42886 28.8318 4.43935 29.4501C4.43935 29.4501 4.81113 28.8392 5.4591 29.3715C5.4591 29.3715 5.57482 29.0535 5.89816 29.3715" stroke="#000072" stroke-width="0.2" stroke-miterlimit="10"/>
<path d="M1.84766 31.0732C1.84766 31.0732 2.04939 30.4527 2.60133 30.9914C2.60133 30.9914 2.93909 29.9781 3.66167 30.6639C3.66167 30.6639 3.95277 29.3114 4.83911 30.2403C4.83911 30.2403 4.97696 29.3572 5.68191 30.0105C5.68191 30.0105 5.73541 29.4682 6.10706 29.9037" stroke="#000072" stroke-width="0.2" stroke-miterlimit="10"/>
<path d="M2.01953 31.542C2.01953 31.542 2.20723 31.0309 2.75413 31.3978C2.75413 31.3978 3.34875 30.591 3.89443 31.1688C3.89443 31.1688 4.48002 30.3004 5.03881 30.9604C5.03881 30.9604 5.32945 30.1455 5.90413 30.7128C5.90413 30.7128 6.11708 30.409 6.2891 30.6718" stroke="#000072" stroke-width="0.2" stroke-miterlimit="10"/>
<path d="M2.21484 32.1436C2.21484 32.1436 2.54541 31.5867 2.96805 31.9193C2.96805 31.9193 3.33838 31.2847 4.14537 31.8134C4.14537 31.8134 4.52943 30.9542 5.31964 31.603C5.31964 31.603 5.60539 30.872 6.10565 31.5348C6.10565 31.5348 6.10755 30.8255 6.45778 31.1687" stroke="#000072" stroke-width="0.2" stroke-miterlimit="10"/>
<path d="M2.46094 32.8457V32.6671C2.46094 32.6671 2.68239 32.0157 3.21263 32.4406C3.21263 32.4406 3.76011 31.8243 4.33943 32.2998C4.33943 32.2998 4.93807 31.5302 5.47958 32.1437C5.47958 32.1437 5.80565 31.471 6.29002 32.1412" stroke="#000072" stroke-width="0.2" stroke-miterlimit="10"/>
<path d="M2.87305 33.0645C2.87305 33.0645 2.89357 32.7179 3.41886 32.846C3.41886 32.846 3.98193 32.427 4.54178 32.8176C4.54178 32.8176 4.93678 32.1295 5.60713 32.6511C5.60713 32.6511 6.07131 32.1148 6.38893 32.569" stroke="#000072" stroke-width="0.2" stroke-miterlimit="10"/>
<path d="M3.16406 33.4961C3.16406 33.4961 3.36699 33.1929 3.7383 33.408C3.7383 33.408 4.2204 32.9486 4.74373 33.3309C4.74373 33.3309 5.1078 32.7889 5.72025 33.1789C5.72025 33.1789 6.10857 32.6847 6.49623 33.0636" stroke="#000072" stroke-width="0.2" stroke-miterlimit="10"/>
<path d="M3.56445 33.8037C3.56445 33.8037 3.62814 33.4827 3.97644 33.7896C3.97644 33.7896 4.38332 33.533 4.89775 33.8037C4.89775 33.8037 5.45884 33.4583 5.81216 33.7303C5.81216 33.7303 6.27152 33.3913 6.57677 33.7148" stroke="#000072" stroke-width="0.2" stroke-miterlimit="10"/>
<path d="M4.1543 34.0279C4.1543 34.0279 4.42488 33.7489 5.03878 34.083C5.03878 34.083 5.37574 33.881 5.68437 33.9522C5.72845 33.9624 5.77197 33.9782 5.81384 34.0009" stroke="#000072" stroke-width="0.2" stroke-miterlimit="10"/>
<path d="M5.85547 34.085C5.85547 34.085 6.16763 33.8175 6.69787 34.0017" stroke="#000072" stroke-width="0.2" stroke-miterlimit="10"/>
<path d="M6.45913 31.075C6.36599 31.2829 6.72741 34.5547 6.72741 34.5547H11.2354L11.1394 34.3125L10.1112 32.386L9.46759 30.5764C8.00917 30.3733 6.57761 27.0186 6.57761 27.0186L5.5625 28.0789L5.813 28.6555L6.28825 29.7344L6.45913 31.075Z" fill="#000072"/>
<path d="M32.1598 27.873L29.9531 34.3125" stroke="#000072" stroke-width="0.2" stroke-miterlimit="10"/>
<path d="M32.7476 28.659C32.7476 28.659 32.3553 32.7682 30.5137 34.4111" stroke="#000072" stroke-width="0.2" stroke-miterlimit="10"/>
<path d="M31.3077 27.8337C31.3077 27.8337 29.8132 31.3593 29.1035 34.3516" stroke="#000072" stroke-width="0.2" stroke-miterlimit="10"/>
<path d="M30.0641 28.1422C30.0641 28.1422 28.9764 30.1456 28.4121 34.7236" stroke="#000072" stroke-width="0.2" stroke-miterlimit="10"/>
<path d="M33.111 29.7441C33.111 29.7441 32.992 29.1745 32.6149 29.558C32.6149 29.558 32.4574 28.5397 31.7137 29.1684C31.7137 29.1684 31.5037 28.3006 30.851 28.9677C30.851 28.9677 30.343 28.1382 29.7103 28.9677C29.7103 28.9677 29.5795 28.7576 29.2734 29.0337" stroke="#000072" stroke-width="0.2" stroke-miterlimit="10"/>
<path d="M33.1494 30.3213C33.1494 30.3213 33.0097 29.7624 32.4953 30.1771C32.4953 30.1771 32.1962 29.4767 31.4547 29.926C31.4547 29.926 31.2808 29.2167 30.5101 29.6787C30.5101 29.6787 30.2824 29.1387 29.5148 29.5224C29.5148 29.5224 29.3352 29.1809 29.0137 29.5525" stroke="#000072" stroke-width="0.2" stroke-miterlimit="10"/>
<path d="M33.1464 30.9912C33.1464 30.9912 32.8526 30.3893 32.3508 30.7792C32.3508 30.7792 31.8817 30.1266 31.2039 30.6478C31.2039 30.6478 30.9476 30.0115 30.2959 30.4459C30.2959 30.4459 29.9624 29.7444 29.2705 30.2401C29.2705 30.2401 29.1436 29.8703 28.6406 30.1768" stroke="#000072" stroke-width="0.2" stroke-miterlimit="10"/>
<path d="M33.0269 31.5352C33.0269 31.5352 32.8538 30.9401 32.1687 31.4336C32.1687 31.4336 31.7019 30.6697 31.0048 31.2353C31.0048 31.2353 30.7035 30.4569 30.0647 31.0928C30.0647 31.0928 29.8632 30.4595 29.1026 30.9407C29.1026 30.9407 28.9912 30.4452 28.6666 30.8704C28.3419 31.2956 28.5807 30.8625 28.5807 30.8625" stroke="#000072" stroke-width="0.2" stroke-miterlimit="10"/>
<path d="M32.8431 32.125C32.8431 32.125 32.5952 31.4606 31.9843 31.9823C31.9843 31.9823 31.602 31.4398 30.817 31.7824C30.817 31.7824 30.3425 31.2227 29.7923 31.7821C29.7923 31.7821 29.4176 31.2132 28.9256 31.6871C28.9256 31.6871 28.734 30.7535 28.2715 31.6558" stroke="#000072" stroke-width="0.2" stroke-miterlimit="10"/>
<path d="M32.471 32.5859C32.471 32.5859 32.4559 31.979 31.7967 32.4672C31.7967 32.4672 31.3624 31.8718 30.5977 32.4316C30.5977 32.4316 30.1843 31.8189 29.6252 32.4664C29.6252 32.4664 29.2443 31.8726 28.7718 32.4474C28.7718 32.4474 28.7569 31.4575 28.1191 32.2335" stroke="#000072" stroke-width="0.2" stroke-miterlimit="10"/>
<path d="M32.156 33.0996C32.156 33.0996 32.0579 32.7685 31.5314 33.0243C31.5314 33.0243 30.9595 32.6024 30.3943 33.0134C30.3943 33.0134 30.068 32.5629 29.4709 32.9666C29.4709 32.9666 28.9795 32.5459 28.6418 32.9491C28.6418 32.9491 28.6716 32.1964 27.9551 32.7743" stroke="#000072" stroke-width="0.2" stroke-miterlimit="10"/>
<path d="M31.7768 33.5022C31.7768 33.5022 31.6961 33.1283 31.2588 33.5022C31.2588 33.5022 30.7622 33.1743 30.2039 33.5703C30.2039 33.5703 29.6545 33.2285 29.301 33.5703C29.301 33.5703 28.9222 33.066 28.5215 33.5703C28.5215 33.5703 28.3988 32.9039 28.0117 33.4532" stroke="#000072" stroke-width="0.2" stroke-miterlimit="10"/>
<path d="M31.4446 33.6943C31.4446 33.6943 31.2633 33.5314 31.0814 33.7673C31.0814 33.7673 30.3554 33.5578 30.0657 33.9785C30.0657 33.9785 29.7539 33.6447 29.1954 33.9785C29.1954 33.9785 28.9225 33.4856 28.5133 33.9785C28.5133 33.9785 28.2878 33.3232 27.8652 33.9785" stroke="#000072" stroke-width="0.2" stroke-miterlimit="10"/>
<path d="M25.683 30.5237L27.1318 29.1522L28.2714 27.2536L28.4125 26.8322L29.369 27.8732L29.4441 28.3903L28.9256 28.9685L28.6426 29.6788L28.522 30.5237V30.9774L28.5122 31.2802C28.5122 31.2802 28.0174 33.571 28.2714 34.4726L23.8588 34.5801L23.7148 34.3127L24.4356 32.9377L25.2267 31.1134L25.683 30.5237Z" fill="#000072"/>
<path d="M24.8752 21.6304C24.8752 21.6304 21.3438 28.3611 20.9473 30.2402" stroke="#000072" stroke-width="0.2" stroke-miterlimit="10"/>
<path d="M23.7459 22.147C23.7459 22.147 20.2939 28.9336 20.5992 29.5078" stroke="#000072" stroke-width="0.2" stroke-miterlimit="10"/>
<path d="M27.0444 21.7767C27.0444 21.7767 24.4199 28.7979 23.1992 30.4385" stroke="#000072" stroke-width="0.2" stroke-miterlimit="10"/>
<path d="M22.3105 23.169C22.3105 23.169 23.1092 22.3389 23.3066 23.0318C23.3066 23.0318 23.8428 22.2563 24.2797 22.7875C24.2797 22.7875 25.3203 21.9646 25.4869 22.8853C25.4869 22.8853 26.433 22.1531 26.5118 23.169C26.5118 23.169 26.8553 23.0735 26.847 23.927C26.847 23.927 27.1556 24.5901 27.066 24.8477" stroke="#000072" stroke-width="0.2" stroke-miterlimit="10"/>
<path d="M23.623 22.392C23.623 22.392 24.2484 21.8373 24.6053 22.1468C24.6053 22.1468 25.4468 21.3091 25.8855 22.006C25.8855 22.006 26.7176 21.8616 26.7323 22.5921C26.7323 22.5921 27.0692 23.0072 27.043 23.169C27.043 23.169 26.6573 25.7141 25.9197 27.2266C25.9197 27.2266 24.9417 30.5223 23.9458 30.7861" stroke="#000072" stroke-width="0.2" stroke-miterlimit="10"/>
<path d="M22.1875 23.6805C22.1875 23.6805 22.6875 23.0675 22.984 23.6805C22.984 23.6805 23.7171 22.9863 23.7468 23.6805C23.7468 23.6805 24.9041 23.1309 25.0569 23.8205C25.0569 23.8205 25.9114 23.2222 26.0841 24.2451C26.0841 24.2451 26.9055 23.9433 26.645 24.9841C26.645 24.9841 27.1007 24.867 27.0148 25.5215" stroke="#000072" stroke-width="0.2" stroke-miterlimit="10"/>
<path d="M21.7363 24.4465C21.7363 24.4465 22.4629 23.7798 22.5543 24.5644C22.5543 24.5644 23.2578 23.8916 23.2963 24.742C23.2963 24.742 24.5533 24.1082 24.5246 24.9838C24.5246 24.9838 25.4026 24.709 25.5602 25.5331C25.5602 25.5331 26.3187 25.2846 26.3976 25.9799C26.3976 25.9799 26.957 25.9458 26.9046 26.3896" stroke="#000072" stroke-width="0.2" stroke-miterlimit="10"/>
<path d="M21.3535 25.2959C21.3535 25.2959 21.9133 24.3778 22.2536 25.2905C22.2536 25.2905 22.7064 24.8892 22.9119 25.4577C22.9119 25.4577 24.0131 25.0967 24.1096 25.8998C24.1096 25.8998 24.8548 25.4399 25.2262 26.1661C25.2262 26.1661 26.0905 26.026 26.2162 26.5268C26.2162 26.5268 26.6103 26.4063 26.7517 26.832" stroke="#000072" stroke-width="0.2" stroke-miterlimit="10"/>
<path d="M21.1348 25.8279C21.1348 25.8279 21.6528 25.5619 21.8072 26.1663C21.8072 26.1663 22.3437 25.7052 22.5592 26.2582C22.5592 26.2582 23.4376 25.9283 23.7193 26.6201C23.7193 26.6201 24.6709 26.2657 24.9803 26.9183C24.9803 26.9183 25.6256 26.7498 25.9777 27.1798C25.9777 27.1798 26.4058 27.0219 26.4642 27.4512" stroke="#000072" stroke-width="0.2" stroke-miterlimit="10"/>
<path d="M20.7578 26.5377C20.7578 26.5377 21.476 26.0136 21.4748 26.8928C21.4748 26.8928 22.0987 26.4592 22.1857 27.0005C22.1857 27.0005 23.157 26.7239 23.397 27.451C23.397 27.451 24.2056 26.8722 24.6048 27.7556C24.6048 27.7556 25.4367 27.3181 25.6254 28.0391" stroke="#000072" stroke-width="0.2" stroke-miterlimit="10"/>
<path d="M20.4941 27.3796C20.4941 27.3796 21.0491 26.7916 21.2344 27.451C21.2344 27.451 21.7454 27.0263 21.934 27.6293C21.934 27.6293 22.8278 27.3858 23.1297 28.0391C23.1297 28.0391 23.9321 27.701 24.3225 28.3726C24.3225 28.3726 25.0162 27.9384 25.3745 28.5996" stroke="#000072" stroke-width="0.2" stroke-miterlimit="10"/>
<path d="M20.2461 27.9341C20.2461 27.9341 20.8149 27.5885 20.9939 28.0388C20.9939 28.0388 21.4921 27.7007 21.6839 28.2031C21.6839 28.2031 22.6611 28.0057 22.8127 28.5993C22.8127 28.5993 23.7047 28.3487 24.051 28.94C24.051 28.94 24.7287 28.7042 25.1211 29.1718C25.1211 29.1718 25.2799 29.0784 25.2796 29.5078" stroke="#000072" stroke-width="0.2" stroke-miterlimit="10"/>
<path d="M20.0254 28.457C20.0254 28.457 20.6333 28.1509 20.7565 28.5434C20.7565 28.5434 21.4087 28.2867 21.4613 28.7259C21.4613 28.7259 22.5673 28.48 22.633 29.1207C22.633 29.1207 23.6123 28.8327 23.757 29.508C23.757 29.508 24.606 29.1649 24.7936 29.9258C24.7936 29.9258 25.1248 29.7716 25.2207 30.2402" stroke="#000072" stroke-width="0.2" stroke-miterlimit="10"/>
<path d="M9.56836 21.1402C9.56836 21.1402 12.7163 26.2226 13.4519 29.5078" stroke="#000072" stroke-width="0.2" stroke-miterlimit="10"/>
<path d="M11.377 22.1212C11.377 22.1212 13.7287 26.3529 14.5095 29.1533" stroke="#000072" stroke-width="0.2" stroke-miterlimit="10"/>
<path d="M8.05664 21.9469C8.05664 21.9469 10.7981 29.5814 11.6959 30.1768" stroke="#000072" stroke-width="0.2" stroke-miterlimit="10"/>
<path d="M7.94531 23.3721C7.94531 23.3721 10.1626 30.1754 10.824 30.5234" stroke="#000072" stroke-width="0.2" stroke-miterlimit="10"/>
<path d="M8.25586 22.2539C8.25586 22.2539 8.31702 21.4553 8.97943 21.9178C8.97943 21.9178 9.24336 21.3457 9.99377 21.8449C9.99377 21.8449 10.193 21.5386 10.8269 21.788" stroke="#000072" stroke-width="0.2" stroke-miterlimit="10"/>
<path d="M8.0957 23.8203C8.0957 23.8203 8.15508 23.2583 8.62251 23.4781C8.62251 23.4781 8.76721 22.6994 9.57162 23.2437C9.57162 23.2437 9.72089 22.4246 10.6088 22.9258C10.6088 22.9258 11.1668 22.208 11.8095 22.9258C11.8095 22.9258 12.2797 22.4967 12.6231 22.9258" stroke="#000072" stroke-width="0.2" stroke-miterlimit="10"/>
<path d="M7.94531 23.1455C7.94531 23.1455 8.1515 22.8034 8.39919 22.9257C8.39919 22.9257 8.66622 22.182 9.24289 22.5133C9.24289 22.5133 9.60832 21.9742 10.2678 22.3239C10.2678 22.3239 10.9544 22.0135 11.3752 22.2059" stroke="#000072" stroke-width="0.2" stroke-miterlimit="10"/>
<path d="M7.87109 24.8857C7.87109 24.8857 7.95036 24.5076 8.40015 24.7252C8.40015 24.7252 8.46214 24.1535 8.97756 24.4489C8.97756 24.4489 9.10977 23.664 10.0271 24.1501C10.0271 24.1501 10.1197 23.2342 11.0932 23.8202C11.0932 23.8202 11.5214 23.118 12.1699 23.6244C12.1699 23.6244 12.2422 23.2244 12.7391 23.5646" stroke="#000072" stroke-width="0.2" stroke-miterlimit="10"/>
<path d="M7.94531 25.7695C7.94531 25.7695 8.15051 25.1437 8.67428 25.5218C8.67428 25.5218 8.7826 24.8544 9.32102 25.296C9.32102 25.296 9.71992 24.6825 10.3041 24.9844C10.3041 24.9844 10.8297 24.1522 11.5113 24.629C11.5113 24.629 12.0061 23.988 12.5404 24.3665C12.5404 24.3665 12.5594 24.122 13.0651 24.2454" stroke="#000072" stroke-width="0.2" stroke-miterlimit="10"/>
<path d="M8.0957 26.3896C8.0957 26.3896 8.23669 25.7462 8.90047 26.1656C8.90047 26.1656 9.2087 25.7255 9.61027 26.0219C9.61027 26.0219 9.95572 25.2776 10.6694 25.7057C10.6694 25.7057 11.1485 25.028 11.9181 25.4546C11.9181 25.4546 12.2697 24.8887 12.9472 25.2129C12.9472 25.2129 12.8897 24.8803 13.4041 25.0921" stroke="#000072" stroke-width="0.2" stroke-miterlimit="10"/>
<path d="M8.35938 27.0186C8.35938 27.0186 8.51391 26.4539 9.04968 26.7373C9.04968 26.7373 9.36891 26.1464 9.85382 26.5919C9.85382 26.5919 10.0676 25.8407 10.9748 26.3542C10.9748 26.3542 11.4077 25.6985 12.2052 26.0192C12.2052 26.0192 12.5219 25.3992 13.2358 25.7784C13.2358 25.7784 13.3842 25.4707 13.7447 25.7168" stroke="#000072" stroke-width="0.2" stroke-miterlimit="10"/>
<path d="M8.39648 27.5791C8.39648 27.5791 8.6139 26.8561 9.20778 27.0185C9.20778 27.0185 9.74139 26.7364 10.0104 26.9948C10.0104 26.9948 10.7775 26.4288 11.1715 26.8319C11.1715 26.8319 11.9642 26.2165 12.4446 26.6085C12.4446 26.6085 12.9859 26.162 13.5158 26.473C13.5158 26.473 13.8062 26.1585 14.1648 26.39" stroke="#000072" stroke-width="0.2" stroke-miterlimit="10"/>
<path d="M14.5069 27.2533C14.5069 27.2533 13.9548 26.5368 13.8266 27.2107C13.8266 27.2107 12.8841 26.6562 12.7953 27.4509C12.7953 27.4509 11.8694 26.768 11.5438 27.6602C11.5438 27.6602 10.5971 27.149 10.3565 27.8687C10.3565 27.8687 9.75268 27.2486 9.65941 28.039C9.65941 28.039 9.34418 27.9208 9.28906 28.2275" stroke="#000072" stroke-width="0.2" stroke-miterlimit="10"/>
<path d="M14.7559 27.8686C14.7559 27.8686 14.2454 27.315 14.1096 27.9426C14.1096 27.9426 13.3592 27.4579 13.0419 28.1133C13.0419 28.1133 12.2326 27.7117 11.9182 28.4568C11.9182 28.4568 11.0525 27.9828 10.8229 28.7999C10.8229 28.7999 10.2284 28.5636 10.025 29.1534C10.025 29.1534 9.71935 29.0739 9.56836 29.5078" stroke="#000072" stroke-width="0.2" stroke-miterlimit="10"/>
<path d="M14.8762 28.3431C14.8762 28.3431 14.4909 27.6594 14.311 28.5106C14.311 28.5106 13.8329 28.2186 13.2731 28.8185C13.2731 28.8185 12.5571 28.5777 12.164 29.0431C12.164 29.0431 11.5969 28.89 11.1854 29.2986C11.1628 29.321 11.1407 29.3452 11.1191 29.3711" stroke="#000072" stroke-width="0.2" stroke-miterlimit="10"/>
<path d="M11.1389 29.345C11.1389 29.345 10.61 29.2978 10.3352 29.7821C10.3352 29.7821 9.9536 29.7981 9.7774 30.2398C9.6012 30.6814 9.69472 30.1765 9.69472 30.1765" stroke="#000072" stroke-width="0.2" stroke-miterlimit="10"/>
<path fill-rule="evenodd" clip-rule="evenodd" d="M17.4532 3.18346C23.5281 3.18346 28.2013 9.39374 28.2013 14.5793C28.2013 19.765 19.6357 21.8605 17.4532 21.9628C15.2706 22.065 6.25977 19.613 6.25977 14.4273C6.25977 9.24158 11.3783 3.18346 17.4532 3.18346Z" fill="#FF850B"/>
<path d="M17.4561 3.43467C11.3978 3.43467 6.51939 9.44775 6.51939 14.4263C6.51939 15.7209 7.11841 16.9384 8.29991 18.0448C10.9316 20.5094 15.7331 21.7125 17.3207 21.7126C17.3643 21.7126 17.4052 21.7117 17.4439 21.7099C18.5941 21.656 21.2439 21.0746 23.5338 19.9508C25.5473 18.9626 27.9474 17.2284 27.9474 14.5784C27.9474 9.42505 23.3646 3.43467 17.4561 3.43467ZM17.3272 22.2168C15.6242 22.2168 10.7161 21.0044 7.94559 18.4099C6.65853 17.2045 6.00586 15.8642 6.00586 14.4263C6.00586 11.8307 7.27205 8.93798 9.39293 6.68843C11.6446 4.30012 14.5835 2.93033 17.4561 2.93033C20.3466 2.93033 23.1332 4.29443 25.3028 6.77138C27.2803 9.02903 28.4609 11.9475 28.4609 14.5784C28.4609 16.8799 26.8365 18.8937 23.7633 20.4019C21.4067 21.5586 18.6635 22.1577 17.4683 22.2137C17.4242 22.2158 17.377 22.2168 17.3272 22.2168" fill="#000072"/>
<g opacity="0.5">
<g opacity="0.5">
<path opacity="0.5" fill-rule="evenodd" clip-rule="evenodd" d="M17.4528 3.18221C21.1864 3.18221 24.3901 5.52839 26.3052 8.5404C26.3251 8.63774 26.3443 8.73547 26.3612 8.83398C24.6127 6.31657 21.8864 4.65656 18.8672 4.20876C19.0608 4.2806 19.173 4.36591 19.173 4.45748C19.173 4.71343 18.2953 4.92091 17.2127 4.92091C16.1302 4.92091 15.2525 4.71343 15.2525 4.45748C15.2525 4.36591 15.3645 4.2806 15.5583 4.20876C12.5389 4.65666 9.81293 6.31677 8.06445 8.83398L8.07411 8.78092C10.0902 5.64859 13.5768 3.18221 17.4528 3.18221Z" fill="white"/>
</g>
</g>
<path fill-rule="evenodd" clip-rule="evenodd" d="M27.9128 16.1717C26.4022 20.1989 19.3967 21.8708 17.4532 21.9618C15.5296 22.0519 8.30351 20.1575 6.61523 16.157C6.74467 13.9779 7.87178 13.3823 9.95617 14.4472C10.8134 14.885 11.6853 15.3417 12.3763 14.994C16.3202 13.0085 18.7283 13.3828 21.4278 14.994C22.6901 15.7475 23.9221 14.6235 24.695 14.2809C27.1567 13.1891 28.2861 13.9527 27.9128 16.1717Z" fill="white"/>
<g opacity="0.300003">
<g opacity="0.300003">
<path opacity="0.300003" fill-rule="evenodd" clip-rule="evenodd" d="M28.1545 13.6731C28.1851 13.9775 28.2013 14.2798 28.2013 14.5787C28.2013 14.7697 28.1884 14.9559 28.1659 15.1387L28.1682 15.084C27.8682 18.5447 20.773 21.1871 16.956 21.4005C13.7698 21.5786 7.40608 18.2098 6.33607 15.084C6.33806 15.1488 6.34145 15.2135 6.34443 15.2781C6.28992 15.0028 6.25977 14.7193 6.25977 14.4266C6.25977 14.1936 6.27051 13.9589 6.2907 13.7229L6.30732 13.6723C8.79467 17.1848 12.8751 19.2792 17.2313 19.2792C21.5871 19.2792 25.6672 17.1849 28.1545 13.6731Z" fill="#000072"/>
</g>
</g>
<path fill-rule="evenodd" clip-rule="evenodd" d="M13.5246 12.0158C13.1849 11.867 12.8372 11.6177 12.4819 11.2683C11.8659 11.2958 11.373 11.9421 11.373 12.7352C11.373 13.5459 11.8877 14.2031 12.5225 14.2031C13.1573 14.2031 13.672 13.5459 13.672 12.7352C13.672 12.4738 13.6184 12.2284 13.5246 12.0158Z" fill="#000072"/>
<path d="M23.173 10.6343C22.7584 11.1752 22.3508 11.5935 21.9502 11.8891C21.3609 12.324 20.723 12.4001 20.6523 11.9212C20.9693 11.8855 21.2997 11.7408 21.6433 11.4872C22.4901 10.8622 22.7548 10.4597 23.173 10.6343Z" fill="#000072"/>
<path fill-rule="evenodd" clip-rule="evenodd" d="M21.2392 12.0158C21.5788 11.867 21.9266 11.6177 22.282 11.2683C22.898 11.2958 23.3907 11.9421 23.3907 12.7352C23.3907 13.5459 22.8762 14.2031 22.2413 14.2031C21.6064 14.2031 21.0918 13.5459 21.0918 12.7352C21.0918 12.4738 21.1453 12.2284 21.2392 12.0158" fill="#000072"/>
<path fill-rule="evenodd" clip-rule="evenodd" d="M21.7633 12.3612C21.5768 12.3612 21.4258 12.5193 21.4258 12.7143C21.4258 12.9093 21.5768 13.0674 21.7633 13.0674C21.9496 13.0674 22.1007 12.9093 22.1007 12.7143C22.1007 12.5193 21.9496 12.3612 21.7633 12.3612Z" fill="white"/>
<path fill-rule="evenodd" clip-rule="evenodd" d="M17.2345 12.9932C18.0565 12.9932 18.7229 13.4295 18.7229 13.9677C18.7229 14.506 18.0565 14.9424 17.2345 14.9424C16.4124 14.9424 15.7461 14.506 15.7461 13.9677C15.7461 13.4295 16.4124 12.9932 17.2345 12.9932Z" fill="#000072"/>
<path d="M18.6551 16.1367C18.1312 16.1367 17.6245 15.9454 17.2356 15.6034C16.8013 15.9919 16.2027 16.1726 15.6143 16.0807C14.9307 15.974 14.3511 15.5139 14.1013 14.8798C14.0502 14.7499 14.1159 14.6039 14.2482 14.5537C14.3804 14.5034 14.5291 14.568 14.5803 14.6979C14.7642 15.165 15.1913 15.504 15.6949 15.5826C16.1987 15.6612 16.7116 15.469 17.034 15.0811C17.0821 15.0232 17.154 14.9892 17.2301 14.9884C17.3069 14.9885 17.3787 15.02 17.4282 15.0769C17.7644 15.4639 18.2723 15.6694 18.7891 15.6269C19.3052 15.5843 19.7719 15.2983 20.0377 14.8617C20.1104 14.7421 20.2683 14.7031 20.3898 14.7746C20.5115 14.8461 20.5512 15.0009 20.4784 15.1205C20.128 15.6961 19.5126 16.0734 18.8321 16.1294C18.773 16.1343 18.7139 16.1367 18.6551 16.1367Z" fill="#000072"/>
<path fill-rule="evenodd" clip-rule="evenodd" d="M17.2336 15.2399C17.7688 15.7396 18.2946 15.9521 18.8112 15.8775C18.939 19.171 15.5395 19.0369 15.6552 15.831C16.2885 15.9099 16.8145 15.713 17.2336 15.2399Z" fill="#000072"/>
<path d="M15.9118 16.1007C15.9372 16.9399 16.2403 17.5997 16.745 17.8932C17.0785 18.0871 17.4553 18.0898 17.7789 17.9005C18.2621 17.6178 18.54 16.9851 18.5579 16.1439C18.121 16.1302 17.6821 15.9445 17.2475 15.5894C16.8733 15.9295 16.4297 16.1008 15.9234 16.1008C15.9196 16.1008 15.9157 16.1008 15.9118 16.1007ZM17.2727 18.5439C17.003 18.544 16.7318 18.4717 16.4834 18.3272C15.7525 17.9022 15.3574 16.9892 15.3995 15.8226L15.4095 15.5466L15.6884 15.5814C16.2367 15.6496 16.6784 15.4839 17.0407 15.0749L17.2168 14.8761L17.4113 15.0577C17.8907 15.5052 18.3371 15.692 18.7747 15.6285L19.0578 15.5876L19.0686 15.8684C19.1136 17.0271 18.7392 17.9257 18.0417 18.3339C17.8022 18.4739 17.5381 18.5439 17.2727 18.5439Z" fill="#000072"/>
<path fill-rule="evenodd" clip-rule="evenodd" d="M17.2623 17.0613C16.8052 17.0613 16.3759 17.2762 16.1074 17.6393C16.7254 18.5037 17.8212 18.5179 18.4116 17.632C18.1428 17.2733 17.7161 17.0613 17.2623 17.0613Z" fill="#FF0066"/>
<path d="M16.437 17.6458C16.675 17.9035 16.9744 18.0433 17.285 18.0404C17.5853 18.0356 17.8623 17.8964 18.0802 17.6444C17.863 17.4352 17.5675 17.3142 17.2594 17.3142C16.95 17.3142 16.6542 17.4356 16.437 17.6458ZM17.2691 18.5449C16.7403 18.5449 16.2404 18.269 15.8944 17.7849L15.7891 17.6376L15.8968 17.4919C16.2125 17.0648 16.7219 16.8099 17.2594 16.8099C17.7925 16.8099 18.2994 17.0616 18.6154 17.4832L18.7211 17.6243L18.6235 17.7708C18.3013 18.2543 17.8165 18.5363 17.2934 18.5447C17.2853 18.5449 17.2772 18.5449 17.2691 18.5449Z" fill="#000072"/>
<path fill-rule="evenodd" clip-rule="evenodd" d="M26.9504 9.30176C25.3015 6.62554 23.3246 4.81365 21.0195 3.86636C25.5411 -2.35662 27.5181 -0.544827 26.9504 9.30176Z" fill="#FF850B"/>
<path d="M21.4151 3.76063C23.4387 4.66777 25.225 6.2579 26.7363 8.49656C27.0121 2.42935 26.1742 0.81469 25.4035 0.548445C24.8152 0.345404 23.649 0.74917 21.4151 3.76063ZM27.1612 10.1289L26.7321 9.43244C25.1196 6.81529 23.1647 5.0209 20.9218 4.09911L20.625 3.97716L20.8119 3.71998C22.8802 0.873429 24.4374 -0.32006 25.5738 0.0726745C27.0234 0.573485 27.5428 3.51065 27.2081 9.31614L27.1612 10.1289Z" fill="#000072"/>
<path fill-rule="evenodd" clip-rule="evenodd" d="M20.6291 9.62726C21.0094 9.47411 21.3928 9.52963 21.4853 9.75128C21.5778 9.97293 21.3445 10.2769 20.9643 10.4301C20.584 10.5832 20.2007 10.5276 20.1081 10.306C20.0156 10.0843 20.2489 9.7804 20.6291 9.62726Z" fill="white"/>
<path fill-rule="evenodd" clip-rule="evenodd" d="M14.0014 9.61269C13.6212 9.45944 13.2378 9.51505 13.1453 9.73669C13.0527 9.95836 13.286 10.2623 13.6662 10.4154C14.0464 10.5686 14.4298 10.5131 14.5223 10.2914C14.6149 10.0698 14.3816 9.76582 14.0014 9.61269Z" fill="white"/>
<path fill-rule="evenodd" clip-rule="evenodd" d="M12.693 12.3612C12.5065 12.3612 12.3555 12.5193 12.3555 12.7143C12.3555 12.9093 12.5065 13.0674 12.693 13.0674C12.8793 13.0674 13.0304 12.9093 13.0304 12.7143C13.0304 12.5193 12.8793 12.3612 12.693 12.3612Z" fill="white"/>
<path fill-rule="evenodd" clip-rule="evenodd" d="M7.68484 9.42969C9.33362 6.75338 11.3105 4.94158 13.6156 3.9942C9.09404 -2.22879 7.11711 -0.416894 7.68484 9.42969Z" fill="#FF850B"/>
<path d="M9.50705 0.632087C9.40385 0.632087 9.31279 0.648495 9.23248 0.676257C8.46176 0.942516 7.6239 2.55714 7.89965 8.62435C9.41083 6.38576 11.1971 4.79563 13.2208 3.88839C11.2919 1.2882 10.159 0.632087 9.50705 0.632087ZM7.47479 10.2568L7.4279 9.44398C7.09319 3.63847 7.61246 0.701311 9.06209 0.200459C10.1978 -0.191799 11.7555 1.001 13.824 3.84774L14.0109 4.10492L13.7141 4.22687C11.4711 5.14876 9.51619 6.94319 7.9039 9.5603L7.47479 10.2568Z" fill="#000072"/>
<g opacity="0.649994">
<g opacity="0.649994">
<path opacity="0.649994" fill-rule="evenodd" clip-rule="evenodd" d="M13.0444 4.24707C13.2309 4.15647 13.4199 4.07193 13.611 3.99326C10.8086 0.136386 8.98424 -0.632647 8.13672 1.68306C9.03927 0.0546841 10.675 0.909238 13.0441 4.24687L13.0444 4.24707Z" fill="white"/>
</g>
</g>
<path fill-rule="evenodd" clip-rule="evenodd" d="M8.91873 7.61523C9.72248 6.63884 10.6334 5.79366 11.6516 5.07996C9.36916 0.714498 8.45815 1.55956 8.91873 7.61523Z" fill="#000072"/>
<path d="M9.50734 2.58906C9.49611 2.58906 9.48843 2.59053 9.48396 2.59177C9.45647 2.59937 9.21254 2.6981 9.10815 3.80992C9.03782 4.55904 9.04613 5.62275 9.13257 6.97757C9.79621 6.24012 10.5304 5.57832 11.3232 5.00324C10.1223 2.74867 9.62407 2.58906 9.50734 2.58906ZM8.71218 8.26855L8.66396 7.63388C8.31349 3.02589 8.81141 2.25383 9.34476 2.1063C9.98258 1.92945 10.7414 2.78462 11.8812 4.96461L11.9826 5.15851L11.8019 5.28509C10.8078 5.98194 9.90532 6.81922 9.1196 7.77367L8.71218 8.26855Z" fill="#000072"/>
<g opacity="0.300003">
<g opacity="0.300003">
<path opacity="0.300003" fill-rule="evenodd" clip-rule="evenodd" d="M9.21348 2.48282C8.38058 3.09461 7.84259 4.74984 7.59961 7.44834C7.61424 8.06804 7.64181 8.72839 7.6822 9.42969C7.80538 9.21088 7.93562 8.99461 8.07323 8.78175L8.06359 8.83482C8.72892 7.83807 9.44462 6.97396 10.2104 6.24236C9.76261 6.65722 9.34063 7.10385 8.94444 7.58213C8.93667 7.59151 8.92891 7.6008 8.92115 7.61037C8.92045 7.61114 8.91976 7.61203 8.91896 7.61311C8.91826 7.61389 8.91768 7.61468 8.91696 7.61545C8.6938 4.68134 8.7927 2.9705 9.21348 2.48282ZM25.4184 2.35529C26.2514 2.96717 26.7893 4.62231 27.0322 7.3208C27.0176 7.94049 26.99 8.60095 26.9497 9.30216C26.8264 9.08334 26.6962 8.86716 26.5586 8.65421L26.5682 8.70728C25.903 7.71054 25.1873 6.84642 24.4214 6.11493C24.8693 6.52978 25.2912 6.9764 25.6874 7.45469C25.6951 7.46398 25.7029 7.47335 25.7107 7.48284C25.7114 7.48371 25.7121 7.4846 25.7129 7.48556C25.7136 7.48645 25.7142 7.48714 25.7149 7.48802C25.9381 4.5539 25.8391 2.84295 25.4184 2.35529" fill="#000072"/>
</g>
</g>
<g opacity="0.649994">
<g opacity="0.649994">
<path opacity="0.649994" fill-rule="evenodd" clip-rule="evenodd" d="M21.5842 4.12012C21.3977 4.02952 21.2087 3.94498 21.0176 3.86641C23.8199 0.00952955 25.6444 -0.759603 26.492 1.5561C25.5894 -0.0722709 23.9536 0.782367 21.5845 4.12002L21.5842 4.12012Z" fill="white"/>
</g>
</g>
<path fill-rule="evenodd" clip-rule="evenodd" d="M25.7192 7.4873C24.9154 6.51079 24.0045 5.66563 22.9863 4.95191C25.2687 0.586462 26.1798 1.43161 25.7192 7.4873Z" fill="#000072"/>
<path d="M23.3117 4.87612C24.1046 5.4513 24.8389 6.11317 25.5023 6.85052C25.5888 5.49568 25.5971 4.43199 25.5267 3.68284C25.4223 2.57102 25.1785 2.47226 25.151 2.46468C25.1003 2.45087 24.6284 2.40431 23.3117 4.87612ZM25.9226 8.1416L25.5153 7.64664C24.7298 6.69231 23.8274 5.85499 22.833 5.15798L22.6523 5.03139L22.7537 4.83751C23.8934 2.65767 24.6516 1.80254 25.2902 1.97923C25.8235 2.12674 26.3215 2.89882 25.9709 7.50688L25.9226 8.1416Z" fill="#000072"/>
<path d="M9.50715 0.632115C9.40395 0.632115 9.31289 0.648523 9.23258 0.676285C8.46186 0.942544 7.62393 2.55721 7.89968 8.62442C9.41094 6.38578 11.1972 4.79563 13.2209 3.88841C11.2921 1.28823 10.1591 0.632115 9.50715 0.632115ZM7.47475 10.2568L7.42786 9.44401C7.09322 3.63849 7.61256 0.701297 9.06219 0.200487C10.1979 -0.191771 11.7556 1.00103 13.8241 3.84777L14.011 4.10494L13.7142 4.2269C11.4712 5.14878 9.51629 6.94321 7.90387 9.56032L7.47475 10.2568Z" fill="#000072"/>
<path d="M17.4561 3.43467C11.3978 3.43467 6.51939 9.44775 6.51939 14.4263C6.51939 15.7209 7.11841 16.9384 8.29991 18.0448C10.9316 20.5094 15.7331 21.7125 17.3207 21.7126C17.3643 21.7126 17.4052 21.7117 17.4439 21.7099C18.5941 21.656 21.2439 21.0746 23.5338 19.9508C25.5473 18.9626 27.9474 17.2284 27.9474 14.5784C27.9474 9.42505 23.3646 3.43467 17.4561 3.43467ZM17.3272 22.2168C15.6242 22.2168 10.7161 21.0044 7.94559 18.4099C6.65853 17.2045 6.00586 15.8642 6.00586 14.4263C6.00586 11.8307 7.27205 8.93798 9.39293 6.68843C11.6446 4.30012 14.5835 2.93033 17.4561 2.93033C20.3466 2.93033 23.1332 4.29443 25.3028 6.77138C27.2803 9.02903 28.4609 11.9475 28.4609 14.5784C28.4609 16.8799 26.8365 18.8937 23.7633 20.4019C21.4067 21.5586 18.6635 22.1577 17.4683 22.2137C17.4242 22.2158 17.377 22.2168 17.3272 22.2168" fill="#000072"/>
<g opacity="0.559998">
<g opacity="0.559998">
<path opacity="0.559998" fill-rule="evenodd" clip-rule="evenodd" d="M17.7226 13.3836C17.9471 13.4417 18.1131 13.5477 18.0936 13.6204C18.0742 13.693 17.8765 13.7048 17.652 13.6467C17.4275 13.5886 17.2613 13.4826 17.2809 13.4099C17.3004 13.3373 17.4982 13.3254 17.7226 13.3836Z" fill="white"/>
</g>
</g>
<path d="M11.7754 10.6343C12.1901 11.1752 12.5977 11.5935 12.9983 11.8891C13.5877 12.324 14.2255 12.4001 14.2962 11.9212C13.9792 11.8855 13.6488 11.7408 13.3052 11.4872C12.4584 10.8622 12.1936 10.4597 11.7754 10.6343Z" fill="#000072"/>
<path d="M21.4151 3.76063C23.4387 4.66777 25.225 6.2579 26.7363 8.49656C27.0121 2.42935 26.1742 0.81469 25.4035 0.548445C24.8152 0.345404 23.649 0.74917 21.4151 3.76063ZM27.1612 10.1289L26.7321 9.43244C25.1196 6.81529 23.1647 5.0209 20.9218 4.09911L20.625 3.97716L20.8119 3.71998C22.8802 0.873429 24.4374 -0.32006 25.5738 0.0726745C27.0234 0.573485 27.5428 3.51065 27.2081 9.31614L27.1612 10.1289Z" fill="#000072"/>
</svg>
